<?xml version="1.0" encoding="UTF-8" standalone="no"?>
<svg
   data-name="logo"
   viewBox="0 0 1085 256"
   version="1.1"
   id="svg18"
   sodipodi:docname="logo.svg"
   inkscape:version="1.1.2 (b8e25be833, 2022-02-05)"
   xmlns:inkscape="http://www.inkscape.org/namespaces/inkscape"
   xmlns:sodipodi="http://sodipodi.sourceforge.net/DTD/sodipodi-0.dtd"
   xmlns="http://www.w3.org/2000/svg"
   xmlns:svg="http://www.w3.org/2000/svg">
  <defs
     id="defs22" />
  <sodipodi:namedview
     id="namedview20"
     pagecolor="#f0f0f0f0"
     bordercolor="#a0a0a0"
     borderopacity="1.0"
     inkscape:pageshadow="0"
     inkscape:pageopacity="0.0"
     inkscape:pagecheckerboard="0"
     showgrid="false"
     inkscape:zoom="0.68632873"
     inkscape:cx="500.48903"
     inkscape:cy="-3.6425694"
     inkscape:window-width="1388"
     inkscape:window-height="847"
     inkscape:window-x="44"
     inkscape:window-y="-8"
     inkscape:window-maximized="1"
     inkscape:current-layer="svg18"
     inkscape:snap-bbox="true"
     inkscape:snap-page="true"
     inkscape:bbox-paths="true"
     inkscape:bbox-nodes="true"
     inkscape:snap-nodes="false" />
  <g
     id="g2447"
     transform="translate(5.2635473e-4)">
    <path
       fill="#ffffff"
       d="m 141.6,0.004 a 14.1,14.097 0 0 0 -10.05,4.15 13.525,13.523 0 0 0 -3.762,9.875 c 0,2.182 0.23,4.306 0.445,6.531 a 170.08,170.08 0 0 1 -4.207,-5.225 12.922,12.92 0 0 0 -10.352,-4.895 14.358,14.355 0 0 0 -10.137,4.091 13.97,13.968 0 0 0 -0.76,18.92 156.6,156.6 0 0 0 2.37,3.028 l -0.92,-0.63 A 12.764,12.762 0 0 0 96.647,33.422 14.43,14.427 0 0 0 84.355,40.4 l -0.1,0.156 a 14.1,14.097 0 0 0 4.624,18.762 81.123,81.107 0 0 0 14.53,8.355 14.358,14.355 0 0 0 6.388,1.523 14.057,14.054 0 0 0 12.004,-6.662 l 0.143,-0.215 a 14.53,14.527 0 0 0 1.236,-11.31 h 0.776 a 14.473,14.47 0 0 0 13.05,-8.744 13.87,13.867 0 0 0 6.993,1.837 14.545,14.542 0 0 0 11.486,-5.611 13.611,13.609 0 0 0 2.182,-11.973 52.02,52.009 0 0 1 -1.924,-12.92 A 13.812,13.81 0 0 0 141.6,0.004 Z m 879.82,28.782 a 11.573,11.57 0 0 0 -8.888,3.718 c -3.82,4.177 -3.33,9.445 -2.871,14.082 a 43.074,43.065 0 0 1 0.273,4.996 62.472,62.46 0 0 1 -4.006,18.762 13.683,13.68 0 0 0 -2.398,-4.565 14.818,14.815 0 0 0 -11.487,-5.426 13.224,13.221 0 0 0 -13.11,10.651 c -1.22,5.613 -2.871,13.307 -7.078,16.896 a 13.008,13.006 0 0 0 -3.92,14.671 14.63,14.628 0 0 0 6.174,7.35 53.484,53.473 0 0 1 -23.891,5.21 88.54,88.54 0 0 1 -7.266,-0.315 c -9.419,-0.747 -20.317,-1.435 -27.883,-1.894 a 52.048,52.037 0 0 0 -24.41,2.971 52.823,52.813 0 0 0 -5.741,2.425 20.187,20.183 0 0 0 -4.997,-9.76 c -1.32,-9.36 -7.811,-16.007 -17.69,-17.759 a 25.744,25.739 0 0 0 -4.623,-0.443 18.22,18.217 0 0 0 -10.05,2.87 33.024,33.017 0 0 0 -18.005,-8.784 49.78,49.77 0 0 0 -8.715,-0.775 c -17.833,0 -33.154,9.688 -42.128,25.465 -6.777,-13.94 -19.627,-24.102 -36.512,-27.49 a 56.068,56.057 0 0 0 -11.17,-1.135 c -18.795,0 -34.604,9.619 -43.822,25.64 l -2.195,-26.128 a 15.047,15.044 0 0 0 4.307,0.647 13.755,13.752 0 0 0 10.18,-4.308 13.08,13.078 0 0 0 3.33,-10.048 37.03,37.022 0 0 0 -15.22,-27.505 12.721,12.719 0 0 0 -7.623,-2.482 14.444,14.441 0 0 0 -12.305,6.99 13.611,13.609 0 0 0 -1.765,8.814 22.973,22.968 0 0 0 -3.016,-0.215 c -0.69,0 -1.393,0.029 -2.111,0.086 -9.936,0.833 -17.13,7.048 -19.298,16.25 -5.355,4.493 -7.953,11.57 -7.178,20.097 l 0.258,3.173 h -0.502 c -1.163,0 -2.37,0 -3.619,0.158 a 47.023,47.013 0 0 0 -39.67,28.954 49.45,49.44 0 0 0 -4.136,6.145 57.016,57.004 0 0 0 -4.408,-5.442 c -9.936,-10.565 -22.427,-16.15 -36.14,-16.15 a 55.264,55.253 0 0 0 -11.916,1.35 51.976,51.966 0 0 0 -27.783,15.792 l 2.441,-17.989 c 1.106,-8.039 -0.92,-15 -5.586,-19.781 -1.177,-10.12 -8.126,-17.225 -18.664,-18.66 a 26.146,26.14 0 0 0 -3.475,-0.23 c -11.286,0 -19.67,7.995 -21.35,20.354 l -3.563,26.127 a 49.765,49.755 0 0 0 -7.178,-7.622 46.075,46.066 0 0 0 -36.57,-18.132 49.478,49.468 0 0 0 -6.806,0.488 45.73,45.721 0 0 0 -6.289,1.336 l -0.89,-6.188 c -0.718,-5.081 -1.65,-8.511 -4.522,-12.129 l -0.145,-0.172 a 21.38,21.375 0 0 0 -4.894,-4.307 17.861,17.858 0 0 0 -1.682,-2.468 l -0.143,-0.187 a 21.982,21.978 0 0 0 -16.914,-7.91 21.307,21.303 0 0 0 -3.445,0.273 c -12.693,1.852 -20.216,12.574 -18.292,26.125 l 5.973,42.492 a 46.032,46.023 0 0 0 -22.973,-9.804 45.185,45.176 0 0 0 -6.145,-0.445 33.612,33.605 0 0 0 -6.06,0.544 l 2.068,-15.259 c 0.69,-5.081 0.717,-8.613 -1.049,-12.92 l -0.086,-0.2 a 22.14,22.136 0 0 0 -17.502,-12.919 24.969,24.964 0 0 0 -3.244,-0.217 20.618,20.614 0 0 0 -16.7,8.154 c -8.055,2.47 -13.64,9.562 -14.975,19.424 l -1.867,9.029 -0.014,-0.014 a 15.693,15.69 0 0 0 -2.957,-8.427 14.703,14.7 0 0 0 -8.817,-6.317 14.703,14.7 0 0 0 -24.94,-10.594 l -1.808,1.767 a 35.177,35.17 0 0 0 -12.334,-2.039 c -1.321,0 -2.6,0 -3.805,0.1 -0.847,0 -1.664,0.072 -2.44,0.072 h -2.715 c -2.57,0 -10.266,-0.186 -12.377,-1.55 a 34.69,34.682 0 0 0 -2.654,-3.187 21.537,21.533 0 0 0 2.123,-4.98 21.867,21.863 0 0 0 -1.004,-15.348 19.269,19.265 0 0 0 -12.319,-10.407 21.02,21.016 0 0 0 -19.412,4.177 20.187,20.183 0 0 0 -13.899,-5.252 26.29,26.284 0 0 0 -7.451,1.118 19.972,19.968 0 0 0 -14.186,13.078 v 0.402 a 31.588,31.581 0 0 0 -0.862,10.767 19.254,19.25 0 0 0 -2.312,4.88 v 0.388 c -1.134,4.307 -1.005,7.564 0,19.594 l 0.072,1.622 -8.385,-13.421 -3.504,-5.413 a 64.08,64.067 0 0 0 -6.203,-8.613 l -0.229,-0.273 -0.244,-0.244 A 20.676,20.671 0 0 0 88.289,64.53 26.347,26.342 0 0 0 80.521,65.78 C 72.222,68.32 67.24,72.956 65.316,80.062 a 67.282,67.268 0 0 0 -1.78,13.824 20.862,20.858 0 0 0 -1.207,3.49 68.186,68.173 0 0 0 -2.168,19.19 l 0.188,3.863 -8.3,-14.742 C 45.373,93.887 43.148,90.499 38.309,86.897 A 18.307,18.303 0 0 0 27.34,83.35 23.36,23.356 0 0 0 20.49,84.426 22.973,22.968 0 0 0 6.922,94.562 20.963,20.959 0 0 0 5.242,111.227 20.747,20.743 0 0 0 2.945,129.602 c 1.307,4.048 3.073,7.307 7.395,14.556 l 7.926,13.035 a 14.53,14.527 0 0 0 -11.315,7.02 13.755,13.752 0 0 0 -0.258,13.695 l 0.07,0.143 a 150.784,150.784 0 0 0 3.131,5.297 14.588,14.585 0 0 0 -8.414,7.623 13.339,13.336 0 0 0 -0.086,12.043 c 0.445,0.804 1.436,2.37 1.967,3.116 7.868,10.91 18.954,18.748 30.928,24.834 a 14.07,14.068 0 0 0 6.462,1.578 14.487,14.484 0 0 0 13.84,-11.153 14.028,14.025 0 0 0 0.345,-4.133 c 5.744,8.14 12.679,12.115 20.934,12.115 a 29.305,29.299 0 0 0 9.03,-1.536 c 8.227,-2.67 14.36,-7.68 17.23,-14.184 a 2.398,2.397 0 0 0 0.116,-0.287 c 2.14,-8.613 2.87,-26.37 3.244,-35.198 0.1,-2.44 -0.129,-9.777 -0.129,-9.777 l 13.913,21.074 c 4.81,7.48 8.198,11.183 12.922,14.183 a 22.973,22.968 0 0 0 12.162,3.187 33.397,33.39 0 0 0 10.31,-1.695 c 9.648,-3.144 15.434,-9.387 17.33,-18.66 6.992,13.206 19.54,22.508 35.334,25.738 a 58.595,58.583 0 0 0 11.715,1.207 49.105,49.095 0 0 0 35.25,-14.357 v 0.2 a 23.964,23.959 0 0 0 3.562,17.228 21.537,21.533 0 0 0 15.348,8.8 23.964,23.959 0 0 0 3.303,0.229 18.752,18.748 0 0 0 10.84,-3.273 33.196,33.19 0 0 0 19.195,8.613 47.094,47.085 0 0 0 6.032,0.402 46.147,46.137 0 0 0 31.157,-12.475 53.297,53.286 0 0 0 23.69,-26.27 19.599,19.595 0 0 0 5.226,4.751 20.245,20.24 0 0 0 18.093,10.122 26.419,26.413 0 0 0 3.804,-0.287 19.412,19.408 0 0 0 12.778,-6.777 31.904,31.897 0 0 0 14.66,3.519 44.783,44.774 0 0 0 24.855,-7.752 20.963,20.959 0 0 0 4.91,8.613 20.948,20.944 0 0 0 18.664,18.834 23.906,23.901 0 0 0 3.332,0.228 h 1.02 a 14.918,14.915 0 0 0 -2.873,4.638 13.051,13.049 0 0 0 -0.516,7.81 24.71,24.705 0 0 0 4.164,6.545 c 4.05,4.464 13.41,10.235 21.321,12.603 a 14.243,14.24 0 0 0 4.135,0.633 13.626,13.623 0 0 0 13.051,-10.222 85.273,85.255 0 0 0 22.385,4.866 h 1.235 a 13.195,13.192 0 0 0 13.252,-12.918 14.229,14.226 0 0 0 -8.04,-13.681 65.645,65.632 0 0 0 8.874,-1.35 66.894,66.88 0 0 0 30.079,-15.245 l 0.101,-0.1 a 39.815,39.807 0 0 0 5.987,-6.732 62.57,62.57 0 0 0 2.254,-1.896 l 0.101,-0.1 a 42.447,42.447 0 0 0 2.555,-2.512 46.262,46.252 0 0 0 35.895,17.34 c 1.321,0 2.671,0 4.006,-0.172 a 33.713,33.706 0 0 0 19.212,-7.751 18.35,18.346 0 0 0 11.803,3.99 c 0.718,0 1.435,0.001 2.21,-0.085 10.137,-0.847 17.46,-7.178 19.642,-16.394 a 20.101,20.097 0 0 0 6.174,-9.432 51.689,51.679 0 0 0 28.17,15.446 59.14,59.129 0 0 0 11.487,1.177 49.306,49.296 0 0 0 31.286,-10.765 c -0.1,0.445 -0.2,0.904 -0.272,1.363 a 20.489,20.485 0 0 0 5.125,17.7 22.04,22.035 0 0 0 8.616,14.47 c 8.155,6.848 19.038,11.485 32.362,13.896 a 87.484,87.466 0 0 0 15.492,1.521 47.382,47.372 0 0 0 28.429,-8.612 c 10.768,-7.508 17.933,-19.739 20.719,-35.357 l 1.435,-7.824 a 30.827,30.82 0 0 0 3.778,3.948 21.02,21.016 0 0 0 -2.313,18.202 18.895,18.891 0 0 0 4.58,7.107 20,19.997 0 0 0 0.862,3.46 c 3.475,9.762 15.091,15.79 30.354,15.79 a 55.695,55.684 0 0 0 18.377,-3.116 c 23.62,-8.383 36.039,-29.929 28.917,-50.026 a 32.162,32.156 0 0 0 -5.082,-9.433 c -0.115,-0.387 -0.245,-0.76 -0.36,-1.105 a 8.632,8.632 0 0 0 -0.228,-0.63 59.916,59.904 0 0 0 14.543,2.31 22.384,22.38 0 0 0 12.305,-3.303 45.328,45.32 0 0 0 17.575,3.605 33.21,33.203 0 0 0 17.762,-4.753 29.204,29.198 0 0 0 6.647,-5.627 14.358,14.355 0 0 0 12.922,19.38 14.688,14.685 0 0 0 3.445,-0.417 68.029,68.015 0 0 0 44.755,-35.485 13.927,13.925 0 0 0 -0.531,-13.666 14.774,14.771 0 0 0 -4.307,-4.45 72.67,72.67 0 0 0 1.063,-1.78 13.568,13.566 0 0 0 0.086,-13.723 14.746,14.743 0 0 0 -12.536,-7.25 13.339,13.336 0 0 0 -8.615,3.114 35.35,35.342 0 0 0 -6.834,-19.164 34.861,34.854 0 0 0 3.92,-18.36 33.383,33.376 0 0 0 -6.792,-17.973 C 1045.24,41.792 1034.558,30.968 1024.78,29.131 a 17.56,17.556 0 0 0 -3.36,-0.344 z"
       id="path2" />
    <path
       fill="#91cee5"
       d="m 1027.423,47.949 c -6.12,-0.351 -3.117,6.917 -3.319,14.4 -0.215,7.981 -3.546,29.14 -21.666,50.774 -18.12,21.633 -41.035,21.905 -54.718,20.814 -10.683,-0.862 -23.073,-1.62 -27.97,-1.908 a 43.232,43.223 0 0 0 -20.69,2.468 c -18.335,6.503 -27.754,22.796 -22.197,38.457 2.541,7.178 6.949,12.173 12.922,14.57 4.953,1.81 14.085,2.7 27.28,2.5 5.83,0 8.415,0.962 9.305,3.46 1.12,3.172 -0.56,5.827 -4.739,7.306 a 20.446,20.442 0 0 1 -9.26,0.847 l -2.355,-0.289 -2.356,-0.287 -2.584,-0.4 a 17.359,17.355 0 0 0 -8.441,0.558 c -5.657,2.01 -9.047,9.39 -6.979,15.232 3.317,9.331 21.896,13.064 37.733,7.451 19.168,-6.804 29.262,-23.328 23.634,-39.162 a 24.265,24.26 0 0 0 -14.704,-15.058 c -5.126,-1.737 -14.156,-2.872 -24.508,-2.872 -6.605,-0.1 -9.649,-1.263 -10.467,-3.603 -0.819,-2.34 0.745,-4.766 3.746,-5.828 a 21.537,21.533 0 0 1 7.754,-0.875 c 0,0 26.448,1.637 38.839,4.968 12.39,3.33 21.867,5.597 27.395,-2.183 5.169,4.12 20.934,8.97 32.048,2.095 11.113,-6.876 10.955,-20.527 10.955,-20.527 0,0 5.255,0.99 13.08,-3.718 a 32.636,32.63 0 0 0 14.962,-26.816 c 0.315,-12.145 -9.592,-20.758 -9.592,-20.758 3.704,-2.297 7.007,-8.21 6.691,-18.072 -0.316,-9.862 -10.569,-21.878 -18.452,-23.37 -0.492,-0.094 -0.94,-0.15 -1.347,-0.174 z M 378.055,70.43 a 13.497,13.494 0 0 0 -3.465,0.1 c -8.055,1.148 -12.335,7.48 -11.057,16.41 l 14.157,99.05 c 1.306,9.1 6.936,13.824 15.55,12.59 5.615,-0.79 8.586,-3.72 10.653,-10.452 8.615,6.287 14.359,7.952 22.973,6.732 22.227,-3.172 36.527,-25.753 32.794,-51.836 -3.862,-26.959 -23.231,-44.013 -46.204,-40.74 -8.744,1.249 -13.67,4.278 -19.7,12.102 l -0.574,-0.072 a 94.361,94.342 0 0 0 -1.234,-16.078 l -2.155,-15.044 c -0.617,-4.378 -1.22,-6.073 -2.742,-8.011 a 13.497,13.494 0 0 0 -8.996,-4.75 z m -234.386,0.857 c -1.79,-0.034 -3.712,0.267 -5.729,0.924 a 11.486,11.484 0 0 0 -8.113,7.666 c -0.747,2.842 -0.703,5.253 0.273,16.823 l 0.1,2.009 3.361,31.454 a 238.617,238.568 0 0 0 4.924,30.56 l -1.006,0.33 a 215.701,215.658 0 0 0 -15.793,-26.671 l -18.594,-27.978 -1.162,-1.851 -1.264,-1.623 -1.162,-1.85 a 57.03,57.019 0 0 0 -5.6,-7.48 c -4.078,-3.92 -8.242,-4.78 -14.13,-2.871 -5.383,1.766 -8.255,4.378 -9.288,8.613 a 58.868,58.856 0 0 0 -1.71,16.737 l 1.739,35.429 a 232.6,232.554 0 0 0 2.97,30.26 l -1.003,0.33 A 219.29,219.246 0 0 0 58.468,155.054 l -16.239,-27.62 c -6.633,-11.24 -8.3,-13.48 -11.688,-15.92 -2.67,-1.91 -6.145,-2.267 -10.18,-0.96 -8.069,2.626 -11.586,8.972 -9.174,16.379 1.049,3.187 2.483,5.885 6.575,12.733 l 42.458,69.852 c 6.073,10.048 12.82,13.062 22.067,10.048 5.886,-1.91 10.167,-5.34 11.99,-9.474 1.436,-3.876 1.823,-6.748 1.436,-15.36 L 94.621,159.949 A 216.075,216.03 0 0 0 92.066,131.41 l 0.818,-0.2 a 208.493,208.451 0 0 0 14.544,24.662 l 19.096,28.927 c 4.15,6.402 6.492,9.171 10.268,11.483 3.776,2.31 9.519,2.469 15.262,0.603 9.246,-3 12.922,-9.417 11.889,-21.16 l -6.807,-81.466 v -1.29 l -0.258,-1.438 -0.101,-1.435 a 41.725,41.716 0 0 0 -1.78,-10.047 c -1.809,-5.545 -5.961,-8.66 -11.328,-8.762 z m 512.609,0.48 c -0.495,0 -1.002,0.023 -1.52,0.07 -8.284,0.746 -12.765,6.633 -12.004,15.791 l 1.28,15.158 a 94.936,94.916 0 0 0 2.396,15.935 l -0.69,0.244 c -7.624,-6.288 -13.108,-8.139 -21.393,-7.436 -23.26,1.981 -38.55,22.753 -36.325,49.353 2.326,27.318 20.876,45.808 43.964,43.87 7.94,-0.66 13.683,-3.991 20.503,-11.657 4.106,6.374 7.252,8.27 12.723,7.81 8.456,-0.746 13.108,-6.633 12.348,-15.792 L 669.202,85.359 C 668.488,76.935 663.7,71.766 656.278,71.768 Z m -170.217,14.91 c -6.611,0.287 -11.076,4.932 -12.156,12.895 l -13.499,99.164 c -1.22,8.943 3.118,15.246 11.172,16.337 8.055,1.09 13.898,-3.819 15.118,-12.762 l 13.498,-99.166 c 1.235,-9.144 -2.945,-15.201 -11.172,-16.321 a 16.62,16.62 0 0 0 -2.96,-0.147 z m -196.135,1.68 c -7.294,-0.315 -12.487,4.524 -13.618,12.908 l -13.41,99.18 c -1.263,9.115 2.872,15.203 11.487,16.366 5.614,0.732 9.274,-1.278 13.107,-7.178 6.533,8.412 11.616,11.554 20.231,12.717 22.255,3 42.157,-14.813 45.689,-40.925 3.647,-26.988 -10.368,-48.693 -33.34,-51.794 -8.76,-1.177 -14.33,0.388 -22.255,6.274 l -0.475,-0.23 a 94.103,94.084 0 0 0 3.217,-15.79 l 2.04,-15.074 c 0.588,-4.379 0.472,-6.173 -0.476,-8.441 a 13.44,13.436 0 0 0 -10.71,-7.88 c -0.505,-0.068 -1,-0.112 -1.487,-0.133 z m 440.945,10.336 c -21.022,-0.113 -38.04,14.451 -42.801,38.116 -5.342,26.543 8.584,48.794 33.553,53.818 25.658,5.153 46.895,-9.862 52.308,-36.735 5.398,-26.859 -8.688,-49.181 -33.83,-54.234 a 48.148,48.148 0 0 0 -9.23,-0.965 z m 96.088,4.774 c -20.397,-0.406 -37.448,14.964 -41.715,38.94 -4.681,25.997 8.615,47.946 31.631,52.037 8.529,1.522 14.774,-0.071 23.39,-6.244 l 0.761,0.545 c -2.527,7.177 -4.295,10.049 -7.324,12.92 -4.05,3.588 -10.38,4.809 -17.688,3.503 a 42.6,42.592 0 0 1 -14.76,-5.872 c -8.156,-4.68 -8.96,-5.182 -11.23,-5.584 h -0.33 a 11.774,11.771 0 0 0 -13.439,9.82 c -0.876,4.88 0.892,9.143 5.444,12.818 7.02,5.914 16.54,9.948 28.385,12.059 16.54,2.87 27.438,1.263 37.49,-5.743 8.887,-6.144 14.873,-16.58 17.228,-29.801 l 11.701,-65.631 c 1.608,-9.058 -2.296,-15.347 -10.48,-16.782 -5.93,-1.048 -9.232,0.503 -13.54,6.388 -6.274,-8.11 -10.912,-11.297 -19.096,-12.732 a 41.231,41.231 0 0 0 -6.428,-0.64 z m -608.32,8.373 c -21.015,-0.183 -38.085,14.337 -42.909,37.989 -5.384,26.5 8.427,48.821 33.382,53.917 25.643,5.24 46.922,-9.733 52.42,-36.577 5.486,-26.844 -8.556,-49.194 -33.668,-54.333 a 48.083,48.083 0 0 0 -9.225,-0.996 z m 320.13,10.676 c -3.624,-0.101 -7.368,0.271 -11.209,1.129 -25.715,5.742 -38.996,28.997 -32.678,57.305 5.757,25.71 28.371,39.32 54.948,33.377 a 58.236,58.225 0 0 0 26.202,-13.28 c 6.02,-5.512 8.472,-10.775 7.352,-15.79 -1.35,-6.043 -7.338,-10.321 -13.08,-9.044 A 17.144,17.14 0 0 0 564,179.615 c -7.84,6.287 -5.484,4.494 -6.92,5.527 a 29.233,29.227 0 0 1 -11.328,5.255 c -9.835,2.196 -16.9,-1.15 -21.208,-9.763 a 46.95,46.941 0 0 0 8.616,-1.363 l 37.403,-8.369 c 7.768,-1.737 10.006,-5.484 8.24,-13.437 a 47.999,47.99 0 0 0 -11.342,-21.533 c -8.033,-8.537 -17.82,-13.11 -28.692,-13.416 z m 192.777,1.628 a 15.59,15.59 0 0 1 3.574,0.306 c 9.706,1.953 14.905,12 12.42,24.317 -2.397,11.958 -11.056,19.08 -20.762,17.112 -9.706,-1.966 -14.76,-11.815 -12.318,-23.946 v 0.016 c 2.136,-10.614 8.92,-17.546 17.086,-17.805 z m -316.747,3.6 c 9.053,-0.215 16.603,7.604 18.272,19.258 1.78,12.432 -3.805,22.15 -13.784,23.585 -10.323,1.464 -17.803,-5.857 -19.713,-19.164 h -0.043 c -1.795,-12.604 3.588,-22.136 13.438,-23.528 a 15.733,15.733 0 0 1 1.83,-0.15 z m 415.58,1.701 c 0.6,0.035 1.207,0.106 1.818,0.215 9.778,1.737 14.874,11.27 12.648,23.801 -2.426,13.638 -10.122,20.529 -20.56,18.663 -9.75,-1.723 -14.847,-11.442 -12.622,-23.974 2.06,-11.654 9.71,-19.234 18.715,-18.705 z m -198.41,6.682 c 8.948,0.258 15.532,8.082 16.515,19.804 1.163,13.752 -4.494,22.567 -14.89,23.442 -9.935,0.819 -17.5,-7.594 -18.549,-20.097 -1.033,-12.331 5.24,-22.28 15.104,-23.099 a 16.312,16.312 0 0 1 1.82,-0.05 z m -412.733,1.097 c 1.167,-0.03 2.361,0.077 3.574,0.33 9.706,2.024 14.86,12.1 12.348,24.403 -2.44,11.958 -11.127,19.006 -20.819,17.04 -9.691,-1.967 -14.716,-11.844 -12.246,-23.974 v -0.043 c 2.173,-10.601 8.974,-17.542 17.143,-17.756 z m 318.146,7.047 c 6.385,0.188 11.141,4.277 14.314,12.547 a 22.973,22.968 0 0 0 -6.158,0.833 l -17.948,4.019 a 42.572,42.563 0 0 0 -8.17,2.37 c 0.273,-10.939 4.81,-17.384 13.282,-19.28 1.647,-0.368 3.206,-0.533 4.68,-0.49 z m -226.47,9.762 c 0.595,0.014 1.197,0.062 1.808,0.145 9.778,1.32 15.767,11.396 14.087,23.842 -1.68,12.446 -9.636,20.285 -19.686,18.936 -10.396,-1.435 -15.592,-10.51 -13.797,-23.83 l 0.056,0.029 c 1.602,-11.83 8.606,-19.32 17.532,-19.122 z"
       id="path4" />
    <path
       fill="#e6559f"
       d="m 1021.966,37.45 c -6.12,-0.31 -3.115,6.908 -3.317,14.39 -0.215,7.982 -3.547,29.142 -21.653,50.76 -18.105,21.62 -41.048,21.92 -54.731,20.815 -10.697,-0.862 -23.074,-1.607 -27.97,-1.894 a 43.232,43.223 0 0 0 -20.69,2.468 c -18.335,6.445 -27.755,22.724 -22.213,38.4 2.541,7.178 6.95,12.158 12.922,14.57 4.954,1.809 14.087,2.7 27.282,2.5 5.83,0 8.413,0.96 9.303,3.457 1.12,3.173 -0.56,5.83 -4.739,7.309 a 20.647,20.643 0 0 1 -9.26,0.845 l -2.355,-0.287 -2.354,-0.287 -2.586,-0.402 a 17.359,17.355 0 0 0 -8.441,0.547 c -5.657,2.01 -9.046,9.403 -6.979,15.245 3.317,9.33 21.896,13.063 37.733,7.435 19.168,-6.79 29.262,-23.312 23.634,-39.146 A 24.265,24.26 0 0 0 930.848,159.13 c -5.126,-1.737 -14.156,-2.87 -24.508,-2.942 -6.605,-0.1 -9.649,-1.263 -10.467,-3.602 -0.818,-2.34 0.747,-4.767 3.748,-5.829 a 21.537,21.533 0 0 1 7.752,-0.877 c 0,0 26.447,1.638 38.767,4.954 12.319,3.316 21.867,5.613 27.395,-2.167 5.169,4.12 20.934,8.971 32.047,2.095 11.114,-6.876 10.956,-20.527 10.956,-20.527 0,0 5.27,0.989 13.08,-3.72 a 32.708,32.701 0 0 0 14.948,-26.814 c 0.416,-12.087 -9.49,-20.715 -9.49,-20.715 3.704,-2.296 7.005,-8.197 6.689,-18.059 -0.316,-9.862 -10.567,-21.878 -18.45,-23.313 -0.492,-0.09 -0.941,-0.143 -1.35,-0.164 z M 147.009,55.636 c -1.79,-0.068 -3.72,0.195 -5.752,0.812 a 11.486,11.484 0 0 0 -8.256,7.508 c -0.776,2.828 -0.776,5.24 0,16.838 v 2.01 l 2.771,31.496 c 1.278,13.853 3.36,30.977 3.36,30.977 L 123.438,118.232 105.85,90.053 102.346,84.657 a 56.657,56.645 0 0 0 -5.456,-7.58 c -4.02,-3.962 -8.142,-4.91 -14.072,-3.1 -5.413,1.65 -8.328,4.206 -9.448,8.426 -1.019,3.273 -1.593,11.599 -1.593,18.977 l 1.164,33.13 2.039,30.205 c 0,0 -8.013,-15.303 -14.532,-26.988 l -15.793,-27.92 c -6.433,-11.355 -8.04,-13.638 -11.4,-16.122 -2.628,-1.967 -6.088,-2.397 -10.151,-1.148 -8.113,2.47 -11.746,8.757 -9.477,16.192 0.99,3.273 2.37,6.001 6.332,12.92 l 41.106,70.628 c 5.902,10.22 12.58,13.393 21.884,10.522 5.93,-1.809 10.265,-5.168 12.16,-9.259 1.608,-3.847 2.011,-6.718 1.781,-15.331 l -0.445,-34.812 -2.082,-28.581 0.861,-0.186 14.071,24.907 18.508,29.182 c 4.035,6.532 6.59,9.448 10.051,11.716 3.69,2.397 9.503,2.654 15.247,0.888 9.304,-2.828 13.11,-9.158 12.291,-20.93 l -5.313,-81.578 v -1.293 l -0.244,-1.435 -0.072,-1.437 a 41.81,41.802 0 0 0 -1.594,-10.048 c -1.701,-5.577 -5.792,-8.763 -11.16,-8.966 z m 515.93,4.89 c -0.487,-0.004 -0.983,0.014 -1.49,0.056 -8.097,0.674 -12.765,6.576 -11.99,15.792 l 1.264,15.157 c 0,0 1.436,15.965 1.148,15.793 -7.179,-5.742 -12.82,-7.694 -20.818,-7.02 -23.26,1.953 -38.55,22.753 -36.325,49.353 2.297,27.274 20.876,45.807 43.963,43.87 7.926,-0.66 13.683,-3.977 20.503,-11.657 4.078,6.402 7.18,8.267 12.723,7.808 8.514,-0.79 13.109,-6.688 12.348,-15.847 l -8.372,-99.726 c -0.713,-8.425 -5.666,-13.53 -12.955,-13.58 z m -291.574,2.947 a 13.425,13.422 0 0 0 -3.467,0.11 c -8.04,1.148 -12.318,7.479 -11.055,16.393 L 371,179.026 c 1.307,9.102 6.977,13.825 15.563,12.605 5.6,-0.804 8.616,-3.732 10.654,-10.45 8.615,6.273 14.359,7.953 22.974,6.718 22.197,-3.172 36.483,-25.755 32.75,-51.838 -3.848,-26.959 -23.26,-44.013 -46.19,-40.74 -8.615,1.235 -13.482,4.165 -19.34,11.63 l -1.249,-8.486 c -0.172,-1.952 -0.445,-4.077 -0.89,-7.178 l -2.156,-15.058 c -0.631,-4.378 -1.233,-6.072 -2.755,-7.995 a 13.425,13.422 0 0 0 -8.997,-4.76 z m 109.007,10.73 c -6.619,0.286 -11.076,4.93 -12.169,12.894 l -13.496,99.164 c -1.206,8.943 3.115,15.246 11.17,16.337 8.055,1.091 13.914,-3.82 15.12,-12.748 l 13.496,-99.18 c 1.25,-9.144 -2.915,-15.201 -11.157,-16.32 a 16.65,16.65 0 0 0 -2.964,-0.147 z m -180.334,6.931 c -7.284,-0.325 -12.491,4.526 -13.622,12.91 l -13.397,99.18 c -1.234,9.101 2.944,15.203 11.487,16.366 5.614,0.747 9.277,-1.249 13.096,-7.178 6.547,8.37 11.644,11.555 20.244,12.717 22.255,3 42.156,-14.828 45.673,-40.94 3.69,-26.96 -10.339,-48.65 -33.297,-51.75 -8.615,-1.163 -14.156,0.345 -21.895,6.001 l 1.293,-8.886 c 0.344,-1.837 0.645,-3.904 1.047,-6.89 l 2.039,-15.074 c 0.588,-4.378 0.474,-6.173 -0.46,-8.44 a 13.468,13.465 0 0 0 -10.726,-7.881 16.526,16.526 0 0 0 -1.482,-0.135 z m 431.279,7.941 c -21.023,-0.114 -38.043,14.451 -42.804,38.116 -5.327,26.542 8.587,48.793 33.555,53.818 25.63,5.153 46.88,-9.891 52.279,-36.735 5.413,-26.873 -8.659,-49.181 -33.8,-54.234 a 48.148,48.148 0 0 0 -9.23,-0.965 z m 90.316,3.109 c -20.397,-0.406 -37.448,14.963 -41.716,38.94 -4.623,25.939 8.716,47.889 31.688,51.98 8.53,1.521 14.775,-0.072 23.39,-6.244 l 0.703,0.603 c -2.527,7.177 -4.293,10.049 -7.323,12.92 -4.049,3.589 -10.38,4.793 -17.688,3.5 a 42.6,42.592 0 0 1 -14.76,-5.87 c -8.155,-4.68 -8.96,-5.183 -11.228,-5.585 h -0.33 a 11.774,11.771 0 0 0 -13.44,9.82 c -0.876,4.866 0.89,9.145 5.441,12.82 7.021,5.914 16.542,9.947 28.388,12.057 16.54,2.87 27.436,1.265 37.487,-5.74 8.887,-6.145 14.876,-16.581 17.23,-29.802 l 11.702,-65.633 c 1.623,-9.058 -2.297,-15.345 -10.48,-16.78 -5.916,-1.048 -9.219,0.502 -13.526,6.402 -6.29,-8.125 -10.928,-11.312 -19.112,-12.748 a 41.209,41.209 0 0 0 -6.426,-0.64 z m -606.373,9.03 c -21.023,-0.487 -38.303,13.77 -43.48,37.346 -5.814,26.414 7.697,48.937 32.58,54.406 25.557,5.627 47.065,-9.016 52.952,-35.788 5.887,-26.772 -7.782,-49.337 -32.837,-54.835 a 48.19,48.19 0 0 0 -9.215,-1.129 z m 331.894,12.588 c -3.624,-0.101 -7.368,0.271 -11.209,1.129 -25.715,5.742 -38.996,28.999 -32.678,57.307 5.743,25.71 28.371,39.318 54.948,33.375 a 58.236,58.225 0 0 0 26.204,-13.28 c 6.02,-5.531 8.47,-10.798 7.35,-15.803 -1.35,-6.03 -7.38,-10.309 -13.08,-9.03 a 16.828,16.824 0 0 0 -6.304,3.402 c -7.84,6.274 -5.527,4.492 -6.92,5.526 a 29.434,29.428 0 0 1 -11.328,5.254 c -9.649,2.154 -16.64,-1.004 -20.948,-9.272 l 45.759,-10.236 c 7.768,-1.737 10.05,-5.484 8.24,-13.437 a 48.128,48.118 0 0 0 -11.342,-21.533 c -8.033,-8.527 -17.82,-13.097 -28.692,-13.402 z m 184.823,0.764 a 15.673,15.673 0 0 1 3.574,0.308 c 9.706,1.952 14.904,12.015 12.42,24.317 -2.398,11.958 -11.056,19.064 -20.762,17.112 -9.706,-1.952 -14.76,-11.814 -12.319,-23.944 2.124,-10.651 8.919,-17.545 17.087,-17.793 z m 93.13,3.465 c 0.6,0.036 1.208,0.109 1.82,0.217 9.777,1.737 14.873,11.268 12.648,23.8 -2.427,13.637 -10.123,20.528 -20.561,18.662 -9.75,-1.737 -14.845,-11.441 -12.62,-23.973 v -0.057 c 2.073,-11.587 9.71,-19.177 18.714,-18.649 z m -416.948,2.744 c 9.151,-0.236 16.539,7.609 18.248,19.263 1.824,12.432 -3.804,22.15 -13.783,23.585 h -0.043 c -10.338,1.436 -17.804,-5.857 -19.713,-19.164 -1.795,-12.604 3.444,-22.107 13.437,-23.528 0.625,-0.089 1.244,-0.14 1.854,-0.156 z m 230.486,4.069 c 8.818,0.258 15.506,8.08 16.543,19.802 1.149,13.781 -4.494,22.596 -14.89,23.472 v -0.03 c -9.877,0.819 -17.5,-7.58 -18.548,-20.097 -1.048,-12.518 5.412,-22.278 15.104,-23.096 a 15.78,15.78 0 0 1 1.79,-0.051 z m -423.182,1.814 a 15.58,15.58 0 0 1 3.57,0.375 c 9.678,2.139 14.689,12.288 11.99,24.547 -2.628,11.915 -11.386,18.876 -21.064,16.737 -9.677,-2.139 -14.545,-12.072 -11.889,-24.159 2.325,-10.576 9.222,-17.394 17.393,-17.5 z m 330.164,8.903 c 6.286,0.162 11.024,4.091 14.21,12.057 l -5.93,1.32 -17.948,4.005 -8.125,1.824 c 0.402,-10.58 4.88,-16.853 13.193,-18.72 1.615,-0.36 3.15,-0.523 4.6,-0.486 z m -224.702,11.293 c 0.605,0.014 1.22,0.064 1.845,0.148 9.994,1.35 15.81,11.354 14.13,23.8 -1.68,12.446 -9.679,20.285 -19.73,18.979 -10.337,-1.436 -15.535,-10.48 -13.74,-23.802 1.602,-11.83 8.415,-19.344 17.495,-19.125 z"
       id="path6" />
    <path
       fill="#ffffff"
       d="m 1025.166,45.338 a 1.81,1.809 0 0 0 -1.722,1.722 v 7.65 a 1.795,1.795 0 0 0 3.59,0 v -7.65 a 1.795,1.794 0 0 0 -1.867,-1.722 z M 150.491,58.721 c -1.711,-0.069 -2.906,2.406 -1.11,3.298 3.447,1.78 3.908,6.46 4.022,9.919 0.072,2.297 3.662,2.325 3.59,0 -0.158,-4.752 -1.135,-10.608 -5.744,-13.02 a 1.9,1.9 0 0 0 -0.758,-0.197 z m 511.957,4.563 c -1.956,0.074 -2.68,3.135 -0.54,3.485 l -0.042,0.086 a 7.94,7.938 0 0 1 4.508,1.867 9.505,9.503 0 0 1 2.138,4.78 c 0.503,2.253 3.964,1.306 3.461,-0.947 a 12.65,12.647 0 0 0 -3.029,-6.373 10.855,10.852 0 0 0 -6.088,-2.873 2.032,2.032 0 0 0 -0.408,-0.025 z m -291.786,2.724 c -2.072,-0.05 -1.975,3.326 0.21,3.604 a 6.605,6.603 0 0 1 6.1,5.914 c 0.26,2.269 3.85,2.297 3.59,0 -0.588,-5.469 -4.307,-8.828 -9.69,-9.503 a 2.078,2.078 0 0 0 -0.21,-0.015 z M 87.871,75.78 c -0.98,0.006 -1.99,0.138 -3.014,0.393 a 1.81,1.809 0 0 0 -1.162,2.267 1.78,1.78 0 0 0 2.111,1.15 6.289,6.288 0 0 1 7.537,2.87 1.7952206,1.7952206 0 0 0 3.102,-1.808 C 94.482,77.343 91.37,75.76 87.871,75.78 Z m 394.682,1.941 c -1.966,0.062 -2.677,3.126 -0.55,3.49 a 6.777,6.776 0 0 1 6.072,6.402 c 0.287,2.253 3.877,2.282 3.59,0 -0.675,-5.125 -3.39,-8.958 -8.702,-9.863 a 2.056,2.056 0 0 0 -0.41,-0.029 z m -179.996,6.576 c -1.774,0.036 -2.365,2.935 -0.361,3.546 v 0.014 c 3.79,1.163 4.91,4.063 4.135,7.78 -0.474,2.24 2.987,3.216 3.46,0.948 1.178,-5.656 -0.905,-10.436 -6.648,-12.202 a 1.869,1.869 0 0 0 -0.586,-0.086 z m 440.361,9.64 a 1.796,1.795 0 0 0 -0.404,3.524 v -0.029 c 6.547,1.68 13.827,5.254 17.344,11.297 a 1.7952206,1.7952206 0 0 0 3.102,-1.808 c -3.992,-6.847 -12.031,-11.039 -19.483,-12.92 a 1.796,1.795 0 0 0 -0.559,-0.064 z M 27.836,94.765 c -1.953,-0.062 -2.654,2.963 -0.555,3.514 2.872,0.675 4.825,3.489 6.333,5.872 1.22,1.938 4.307,0.143 3.101,-1.824 -2.01,-3.158 -4.623,-6.603 -8.47,-7.507 a 2.065,2.065 0 0 0 -0.409,-0.055 z m 806.332,3.55 c -1.588,0.065 -2.615,2.414 -0.882,3.323 h -0.014 a 20.417,20.413 0 0 1 8.184,7.738 1.795,1.795 0 0 0 3.101,-1.808 23.849,23.844 0 0 0 -9.46,-9.03 1.816,1.816 0 0 0 -0.929,-0.223 z m -415.161,1.118 c -2.073,0.016 -1.99,3.405 0.207,3.67 a 18.32,18.317 0 0 1 9.979,4.307 c 1.708,1.536 4.307,-0.992 2.54,-2.543 a 22.528,22.523 0 0 0 -12.519,-5.426 2.098,2.098 0 0 0 -0.207,-0.008 z m 445.541,3.54 a 1.81,1.809 0 0 0 -1.455,0.56 1.823,1.823 0 0 0 0,2.455 h 0.016 a 8.07,8.068 0 0 1 2.082,7.982 1.796,1.795 0 0 0 3.459,0.96 11.73,11.728 0 0 0 -3.016,-11.482 1.81,1.809 0 0 0 -1.086,-0.475 z m -231.247,0.733 a 20.446,20.442 0 0 0 -3.526,0.431 1.796,1.795 0 0 0 0.961,3.458 16.684,16.68 0 0 1 13.282,2.944 c 1.809,1.436 4.307,-1.12 2.54,-2.542 a 20.446,20.442 0 0 0 -13.257,-4.291 z m -81.185,14.708 c -2.098,0.055 -2.014,3.442 0.211,3.595 a 19.369,19.365 0 0 1 13.797,6.832 c 1.436,1.794 3.977,-0.76 2.541,-2.54 a 22.872,22.868 0 0 0 -16.338,-7.881 2.162,2.162 0 0 0 -0.21,-0.006 z m 351.985,7.521 c -5.1,-0.005 -9.819,1.662 -14.417,4.01 -2.053,1.049 -0.244,4.151 1.809,3.103 a 26.089,26.083 0 0 1 14.817,-3.417 c 2.297,0.216 2.283,-3.373 0,-3.588 a 23.213,23.213 0 0 0 -2.21,-0.108 z m -565.036,2.302 c -1.74,-0.048 -2.323,2.86 -0.371,3.575 h 0.013 a 21.882,21.877 0 0 1 10.768,8.857 c 1.264,1.91 4.38,0.116 3.088,-1.808 a 25.845,25.84 0 0 0 -12.922,-10.508 1.832,1.832 0 0 0 -0.576,-0.116 z m 590.429,33.625 c -1.955,-0.051 -2.668,2.96 -0.555,3.513 a 12.793,12.79 0 0 1 8.614,6.877 c 1.048,2.067 4.15,0.244 3.101,-1.809 a 16.239,16.236 0 0 0 -10.754,-8.528 2.053,2.053 0 0 0 -0.406,-0.053 z"
       id="path8" />
    <path
       fill="#8579b8"
       d="m 141.669,8.703 c -2.689,0 -5.338,1.73 -5.266,5.197 a 73.226,73.211 0 0 0 2.627,17.815 c 1.838,6.675 12.233,3.846 10.381,-2.872 a 61.208,61.196 0 0 1 -2.24,-14.958 c -0.086,-3.453 -2.814,-5.182 -5.502,-5.182 z m -28.212,10.45 c -1.445,0.052 -2.899,0.625 -3.832,1.566 -2.268,2.253 -1.795,5.31 0,7.607 V 28.312 A 141.326,141.298 0 0 0 120.35,40.83 c 4.867,4.938 12.479,-2.671 7.611,-7.61 A 143.222,143.193 0 0 1 117.235,20.719 c -0.898,-1.149 -2.333,-1.618 -3.778,-1.566 z M 96.681,42.118 c -1.934,-0.013 -3.95,1.104 -4.888,2.703 a 5.513,5.512 0 0 0 1.924,7.378 71.862,71.848 0 0 0 13.41,7.71 5.57,5.57 0 0 0 7.365,-1.94 c 1.336,-2.282 0.748,-6.186 -1.937,-7.363 A 72.221,72.206 0 0 1 99.158,42.898 c -0.736,-0.534 -1.597,-0.774 -2.477,-0.78 z m 583.271,2.824 c -1.937,-0.01 -3.965,1.123 -4.893,2.722 -1.608,2.742 -0.416,5.626 1.924,7.363 a 16.756,16.752 0 0 1 6.55,11.828 c 0.588,6.848 11.37,6.905 10.767,0 a 28.63,28.624 0 0 0 -11.873,-21.13 c -0.732,-0.539 -1.594,-0.779 -2.475,-0.783 z m 312.386,24.004 c -2.144,-0.05 -4.21,1.106 -4.816,3.853 -1.652,7.594 -3.735,16.307 -9.866,21.532 -5.27,4.537 2.383,12.117 7.61,7.61 v 0.07 c 7.509,-6.474 10.611,-16.997 12.65,-26.342 0.853,-4.006 -2.445,-6.65 -5.578,-6.723 z m 75.05,45.282 c -1.654,-0.025 -3.305,0.737 -4.386,2.626 -5.6,9.704 -13.039,18.476 -23.075,23.716 -6.145,3.2 -0.717,12.489 5.428,9.288 11.601,-6.044 20.49,-16.365 26.936,-27.562 2.389,-4.135 -1.263,-8.013 -4.903,-8.068 z m 3.303,20.23 c -1.614,-0.007 -3.194,0.79 -4.172,2.724 a 48.961,48.951 0 0 1 -32.637,26.04 c -6.734,1.65 -3.875,12.043 2.873,10.392 h -0.016 a 59.457,59.445 0 0 0 39.083,-30.992 c 2.142,-4.244 -1.579,-8.148 -5.131,-8.164 z M 19.356,165.66 c -3.589,0.03 -7.277,3.908 -5.026,8.113 a 145.318,145.289 0 0 0 16.8,23.944 c 4.422,5.34 12.002,-2.31 7.609,-7.607 A 131.663,131.637 0 0 1 23.621,168.333 c -1.023,-1.907 -2.634,-2.687 -4.265,-2.673 z m -5.35,25.504 c -3.781,0.142 -7.227,5.441 -3.953,9.425 a 88.59,88.571 0 0 0 28.197,22.638 c 6.16,3.143 11.617,-6.144 5.428,-9.302 A 80.922,80.906 0 0 1 17.662,192.98 c -1.098,-1.339 -2.396,-1.863 -3.656,-1.816 z m 493.095,30.66 c -4.68,0.047 -7.724,7.13 -2.672,10.074 a 76.93,76.915 0 0 0 32.677,10.176 c 6.906,0.574 6.863,-10.193 0,-10.767 a 64.267,64.254 0 0 1 -27.28,-8.714 c -0.937,-0.545 -1.86,-0.778 -2.726,-0.77 z m -21.792,5.993 c -4.281,-0.035 -8.06,5.375 -4.055,9.075 v -0.043 a 46.348,46.338 0 0 0 18.05,10.35 c 6.662,1.996 9.504,-8.383 2.87,-10.379 a 33.942,33.936 0 0 1 -13.31,-7.535 c -1.118,-1.02 -2.356,-1.458 -3.555,-1.468 z"
       id="path10" />
    <path
       fill="#91cee5"
       d="m 166.329,73.876 c 7.94,0.969 16.799,8.34 20.546,13.494 3.748,5.153 15.407,4.728 21.092,4.909 6.907,0.22 17.155,-2.94 29.104,10.666 17.514,19.942 16.31,40.194 -0.933,59.703 -17.244,19.509 -38.523,18.547 -63.176,-4.852 -24.653,-23.399 -32.392,-36.692 -28.888,-57.177 3.503,-20.484 16.785,-27.41 22.255,-26.743 z"
       id="path12" />
    <path
       fill="#ffffff"
       d="m 149.624,85.314 c -2.44,3.92 -4.465,8.96 -5.55,15.305 -1.129,6.597 -1.07,12.447 0.323,18.13 3.355,4.364 7.44,8.345 12.942,9.964 1.248,0.367 2.535,0.574 3.832,0.675 6.337,0.496 12.507,-2.23 16.37,-7.279 3.736,-4.884 4.453,-11.417 2.497,-16.192 -1.544,-3.773 -3.107,-5.192 -5.209,-6.885 -2.193,-1.644 -4.792,-2.878 -7.146,-3.813 -5.745,-2.284 -8.392,-2.79 -11.356,-4.534 -2.22,-1.306 -4.387,-2.872 -6.703,-5.372 z m 66.61,26.029 c -10.57,0 -19.138,8.567 -19.138,19.135 -0.001,10.568 8.568,19.136 19.139,19.137 10.57,0 19.14,-8.569 19.139,-19.137 0,-10.568 -8.57,-19.135 -19.14,-19.135 z"
       id="path14" />
    <path
       fill="#2f2b42"
       d="m 173.919,55.916 a 12.425,12.425 0 0 0 -11.887,8.987 c -1.905,6.605 2.285,11.844 8.961,13.782 6.677,1.937 11.954,-0.576 13.854,-7.178 1.905,-6.62 -0.817,-13.179 -7.422,-15.101 a 12.37,12.37 0 0 0 -3.506,-0.49 z m -24.3,29.394 a 32.506,32.506 0 0 0 -1.689,3.045 29.791,29.791 0 0 0 4.674,3.943 c -1.649,3.521 -2.836,7.453 -3.638,11.447 -0.96,4.781 -1.38,9.617 -1.504,13.487 -0.948,-1.178 -1.637,-2.183 -2.487,-3.392 l -1.648,-2.343 a 38.35,38.35 0 0 0 1.04,7.217 c 3.36,4.378 7.454,8.376 12.972,9.999 1.248,0.367 2.535,0.574 3.832,0.675 6.337,0.496 12.507,-2.231 16.37,-7.279 3.736,-4.884 4.453,-11.417 2.498,-16.192 -1.545,-3.773 -3.108,-5.192 -5.21,-6.885 -2.193,-1.644 -4.792,-2.878 -7.146,-3.813 -5.745,-2.284 -8.392,-2.79 -11.356,-4.534 -2.222,-1.307 -4.39,-2.873 -6.707,-5.375 z m 89.874,2.934 a 6.09,6.09 0 0 0 -4.334,1.71 l -3.504,3.402 c -5.604,5.44 2.896,14.181 8.5,8.741 l 3.504,-3.4 c 2.41,-2.34 2.453,-6.203 0.115,-8.614 a 6.088,6.088 0 0 0 -4.281,-1.839 z m -84.42,5.583 c 1.237,0.659 2.456,1.264 3.729,1.726 0.521,0.189 1.044,0.373 1.566,0.56 0.821,0.294 1.6,0.57 2.383,0.853 -2.155,4.79 -3.547,9.884 -4.25,15.095 -0.843,6.251 -0.42,10.864 0.033,13.463 -3.18,-0.878 -5.865,-2.749 -8.211,-5.069 -0.125,-4.274 0.261,-8.596 0.912,-12.773 0.743,-4.767 1.8,-9.224 3.838,-13.855 z m 10.381,4.147 c 2.197,0.853 4.196,1.737 5.895,2.774 -1.227,3.337 -2.001,6.836 -2.352,10.38 -0.442,4.472 -0.375,9.004 0.256,13.45 a 15.57,15.57 0 0 1 -7.686,1.448 c -0.43,-1.965 -1.152,-6.72 -0.222,-13.562 0.68,-5.001 2.033,-9.895 4.11,-14.49 z m 8.309,4.537 c 1.383,1.237 2.45,2.71 3.115,4.526 a 13.603,13.603 0 0 1 -2.023,13.02 15.6,15.6 0 0 1 -2.971,2.933 53.185,53.185 0 0 1 -0.088,-11.589 38.51,38.51 0 0 1 1.967,-8.89 z m 77.113,0.055 a 6.055,6.055 0 0 0 -3.643,0.94 l -4.105,2.641 c -6.525,4.198 0.05,14.459 6.576,10.263 l 4.106,-2.64 c 2.83,-1.82 3.658,-5.584 1.838,-8.414 a 6.11,6.11 0 0 0 -4.772,-2.79 z m -35.15,7.369 c -11.252,0.269 -20.295,9.6 -20.06,20.988 0.242,11.755 10.273,20.93 22.004,20.097 9.14,-0.648 16.75,-7.266 18.68,-16.221 0.407,-1.885 0.55,-3.818 0.416,-5.74 -0.734,-10.554 -9.367,-18.822 -19.943,-19.122 a 22.26,22.26 0 0 0 -1.096,-0.002 z m 0.458,2.843 c 11.305,-0.047 19.757,10.369 17.381,21.42 -3.068,14.267 -21.115,18.9 -30.68,7.878 -9.565,-11.022 -2.431,-28.23 12.129,-29.255 0.39,-0.028 0.78,-0.042 1.17,-0.043 z m 0.05,7.78 c -5.479,0 -9.92,4.441 -9.921,9.92 -10e-4,5.479 4.441,9.92 9.922,9.92 5.48,0 9.922,-4.441 9.922,-9.92 0,-5.479 -4.443,-9.92 -9.922,-9.92 z"
       id="path16" />
  </g>
</svg>
