<?xml version="1.0" encoding="UTF-8" standalone="no"?>
<svg
   id="logo"
   data-name="logo"
   viewBox="0 0 722.50366 295.52869"
   version="1.1"
   sodipodi:docname="logoModding.svg"
   inkscape:version="1.1.2 (b8e25be833, 2022-02-05)"
   width="722.50366"
   height="295.52869"
   xmlns:inkscape="http://www.inkscape.org/namespaces/inkscape"
   xmlns:sodipodi="http://sodipodi.sourceforge.net/DTD/sodipodi-0.dtd"
   xmlns="http://www.w3.org/2000/svg"
   xmlns:svg="http://www.w3.org/2000/svg">
  <sodipodi:namedview
     inkscape:current-layer="layer1"
     inkscape:snap-bbox="true"
     inkscape:bbox-nodes="true"
     inkscape:snap-page="true"
     inkscape:snap-nodes="false"
     inkscape:snap-global="true"
     inkscape:snap-others="false"
     inkscape:object-nodes="true"
     inkscape:zoom="0.62333333"
     inkscape:cx="372.99465"
     inkscape:cy="108.28877"
     inkscape:window-width="1388"
     inkscape:window-height="847"
     inkscape:window-x="44"
     inkscape:window-y="-8"
     inkscape:window-maximized="1"
     id="namedview3136"
     pagecolor="#f0f0f0f0"
     bordercolor="#a0a0a0"
     borderopacity="1.0"
     inkscape:pageshadow="0"
     inkscape:pageopacity="0.0"
     inkscape:pagecheckerboard="0"
     showgrid="false"
     inkscape:object-paths="true"
     inkscape:snap-smooth-nodes="true"
     inkscape:snap-intersection-paths="false"
     inkscape:snap-midpoints="true"
     inkscape:bbox-paths="true"
     lock-margins="false"
     fit-margin-top="0"
     fit-margin-left="0"
     fit-margin-right="0"
     fit-margin-bottom="0" />
  <defs
     id="defs" />
  <g
     id="gLogo"
     transform="translate(-190.69619,84.361013)"
     sodipodi:insensitive="true"
     style="display:none">
    <path
       id="whiteOutline"
       style="fill:#ffffff"
       d="m 156.48442,-318.63996 a 14.099622,14.096766 0 0 0 -10.05102,4.14915 13.525299,13.52256 0 0 0 -3.76179,9.87597 c 0,2.18199 0.22995,4.30621 0.44532,6.53125 -1.4358,-1.71304 -2.83832,-3.45453 -4.20712,-5.225 a 12.92226,12.919643 0 0 0 -10.3518,-4.89503 14.358066,14.355159 0 0 0 -10.13694,4.09058 13.970399,13.967569 0 0 0 -0.75978,18.92015 c 0.77533,1.01921 1.56513,2.02353 2.36919,3.02839 l -0.91994,-0.63067 a 12.764321,12.761736 0 0 0 -7.58025,-2.42701 14.429857,14.426934 0 0 0 -12.291283,6.97839 l -0.09961,0.1562 a 14.099622,14.096766 0 0 0 4.623143,18.76199 81.123075,81.106647 0 0 0 14.52962,8.35493 14.358066,14.355159 0 0 0 6.38881,1.52299 14.056547,14.053701 0 0 0 12.00418,-6.66208 l 0.14258,-0.21478 a 14.530363,14.52742 0 0 0 1.23635,-11.31108 h 0.77542 a 14.472931,14.47 0 0 0 13.05106,-8.74349 13.869893,13.867083 0 0 0 6.99234,1.83734 14.544721,14.541776 0 0 0 11.48658,-5.61161 13.611447,13.60869 0 0 0 2.18169,-11.973 52.019275,52.00874 0 0 1 -1.92387,-12.91997 13.81246,13.809662 0 0 0 -14.14288,-13.59361 z m 879.82018,28.78244 a 11.572602,11.570258 0 0 0 -8.8888,3.71764 c -3.8192,4.17736 -3.3307,9.44503 -2.8712,14.08175 a 43.074199,43.065476 0 0 1 0.2735,4.99655 62.471947,62.459296 0 0 1 -4.006,18.76199 13.683237,13.680467 0 0 0 -2.3984,-4.56504 14.817524,14.814524 0 0 0 -11.4867,-5.42612 13.223779,13.221102 0 0 0 -13.10963,10.65112 c -1.22044,5.61287 -2.87137,13.30658 -7.07829,16.89536 a 13.008408,13.005774 0 0 0 -3.92,14.67141 14.630869,14.627907 0 0 0 6.17396,7.34937 53.483797,53.472966 0 0 1 -23.89114,5.21134 c -2.25422,0 -4.63827,-0.10097 -7.26579,-0.31631 -9.41889,-0.74646 -20.31673,-1.43461 -27.88343,-1.89397 a 52.04799,52.037451 0 0 0 -24.40874,2.97177 52.823326,52.812629 0 0 0 -5.74232,2.42506 20.187441,20.183354 0 0 0 -4.99621,-9.76076 c -1.32094,-9.35956 -7.81148,-16.00705 -17.68984,-17.75838 a 25.744013,25.7388 0 0 0 -4.62315,-0.44323 18.220386,18.216696 0 0 0 -10.051,2.87024 33.023553,33.016866 0 0 0 -18.0043,-8.78449 49.779416,49.769335 0 0 0 -8.71504,-0.77516 c -17.83272,0 -33.1541,9.68875 -42.12788,25.46507 -6.77701,-13.93886 -19.62744,-24.10204 -36.51253,-27.48986 a 56.068249,56.056895 0 0 0 -11.17017,-1.13443 c -18.7947,0 -34.60339,9.61849 -43.82128,25.63885 l -2.19537,-26.12699 a 15.047254,15.044207 0 0 0 4.30674,0.6463 13.755028,13.752242 0 0 0 10.17991,-4.30731 13.080198,13.077549 0 0 0 3.33016,-10.04779 37.029453,37.021955 0 0 0 -15.21909,-27.50548 12.721247,12.71867 0 0 0 -7.62322,-2.48168 14.444214,14.44129 0 0 0 -12.30495,6.9901 13.611447,13.60869 0 0 0 -1.76567,8.81378 22.972906,22.968254 0 0 0 -3.01568,-0.21478 c -0.6892,0 -1.39348,0.0285 -2.11138,0.0859 -9.93579,0.83259 -17.12924,7.0474 -19.29731,16.24906 -5.35556,4.49317 -7.95322,11.57056 -7.17789,20.09753 l 0.25782,3.17289 h -0.50196 c -1.16301,0 -2.37006,2.4e-4 -3.61922,0.15815 a 47.022667,47.013145 0 0 0 -39.6708,28.95426 49.449181,49.439167 0 0 0 -4.13486,6.14466 57.015881,57.004335 0 0 0 -4.4083,-5.44174 c -9.93578,-10.5654 -22.42752,-16.14949 -36.13948,-16.14949 a 55.264197,55.253006 0 0 0 -11.91627,1.34921 51.9762,51.965675 0 0 0 -27.78381,15.79217 l 2.44145,-17.98878 c 1.10558,-8.0389 -0.91969,-15.00095 -5.58606,-19.78122 -1.17736,-10.12039 -8.12565,-17.22494 -18.66447,-18.66045 a 26.146039,26.140744 0 0 0 -3.47469,-0.2304 c -11.28545,0 -19.67019,7.99546 -21.35008,20.35526 l -3.56258,26.12698 a 49.765058,49.754981 0 0 0 -7.17789,-7.62273 46.075035,46.065705 0 0 0 -36.57112,-18.13131 49.477896,49.467877 0 0 0 -6.80484,0.48813 45.730442,45.72118 0 0 0 -6.2892,1.33554 l -0.89065,-6.18761 c -0.7179,-5.08172 -1.64996,-8.5117 -4.52158,-12.1292 l -0.14453,-0.17182 a 21.37916,21.374832 0 0 0 -4.89465,-4.30731 17.861435,17.857817 0 0 0 -1.68168,-2.46802 l -0.14257,-0.18744 a 21.9822,21.977748 0 0 0 -16.91444,-7.90975 21.307371,21.303056 0 0 0 -3.44539,0.27335 c -12.69253,1.85182 -20.2154,12.57376 -18.29142,26.12503 l 5.97279,42.49125 a 46.03196,46.022639 0 0 0 -22.97317,-9.80371 45.184835,45.175685 0 0 0 -6.14467,-0.44519 33.612233,33.605426 0 0 0 -6.06067,0.54477 l 2.06841,-15.25914 c 0.68918,-5.08172 0.71718,-8.61343 -1.04886,-12.91998 l -0.0859,-0.20111 a 22.140138,22.135655 0 0 0 -17.50234,-12.91802 24.968678,24.963621 0 0 0 -3.24421,-0.21674 20.618184,20.614008 0 0 0 -16.69959,8.15382 c -8.05487,2.46909 -13.63964,9.56191 -14.97494,19.42391 l -1.86723,9.02856 -0.0137,-0.0137 a 15.693367,15.690188 0 0 0 -2.95709,-8.42718 14.70266,14.699682 0 0 0 -8.81661,-6.31648 14.70266,14.699682 0 0 0 -24.94,-10.5945 l -1.80863,1.76706 a 35.177262,35.170139 0 0 0 -12.33426,-2.03846 c -1.32095,0 -2.5987,-9e-4 -3.80478,0.0996 -0.84713,0 -1.66416,0.0722 -2.4395,0.0722 h -0.51759 -2.19731 c -2.5701,0 -10.2666,-0.18658 -12.37723,-1.55032 a 34.689089,34.682064 0 0 0 -2.65435,-3.18655 21.537099,21.532738 0 0 0 2.12308,-4.98094 21.867335,21.862907 0 0 0 -1.00392,-15.34699 19.268525,19.264623 0 0 0 -12.31863,-10.40706 21.02021,21.015953 0 0 0 -19.41254,4.17649 20.187441,20.183354 0 0 0 -13.89875,-5.25234 26.289619,26.284295 0 0 0 -7.45133,1.11881 19.97207,19.968026 0 0 0 -14.18586,13.07813 v 0.20112 0.20111 a 31.587746,31.581349 0 0 0 -0.86135,10.76632 19.254167,19.250268 0 0 0 -2.31255,4.87941 v 0.20111 0.18745 c -1.13429,4.30654 -1.00507,7.56415 0,19.59377 l 0.0723,1.62256 -8.38496,-13.42178 -3.50398,-5.41245 a 64.08005,64.067073 0 0 0 -6.20326,-8.61267 l -0.22852,-0.27336 -0.24414,-0.24406 a 20.675616,20.671428 0 0 0 -14.90463,-6.48831 26.347051,26.341716 0 0 0 -7.767753,1.24963 c -8.298963,2.54086 -13.281434,7.17705 -15.205414,14.28286 a 67.281899,67.268274 0 0 0 -1.779337,13.824 20.86227,20.858046 0 0 0 -1.207057,3.4892 68.186457,68.172649 0 0 0 -2.168017,19.19154 l 0.187504,3.86213 -8.299011,-14.7417 c -6.676541,-11.79991 -8.90191,-15.1881 -13.740578,-18.79125 a 18.306535,18.302828 0 0 0 -10.968992,-3.54582 23.360574,23.355844 0 0 0 -6.849762,1.07586 22.972906,22.968254 0 0 0 -13.568659,10.13565 20.962777,20.958532 0 0 0 -1.679724,16.66495 20.747406,20.743205 0 0 0 -2.296926,18.37539 c 1.306584,4.04815 3.072917,7.30685 7.394695,14.55621 l 7.925956,13.03518 a 14.530363,14.52742 0 0 0 -11.314703,7.0194 13.755028,13.752242 0 0 0 -0.257818,13.69513 l 0.07031,0.14254 c 1.005064,1.79439 2.054074,3.54592 3.130929,5.29725 a 14.587795,14.584841 0 0 0 -8.414249,7.62273 13.338644,13.335942 0 0 0 -0.08594,12.04329 c 0.445101,0.80389 1.435592,2.36979 1.966841,3.11625 7.868219,10.90992 18.953791,18.747818 30.928417,24.834405 a 14.070905,14.068055 0 0 0 6.461081,1.57765 14.487289,14.484355 0 0 0 13.84015,-11.152928 14.027831,14.02499 0 0 0 0.34571,-4.133527 c 5.743227,8.139374 12.67817,12.11553 20.934057,12.11553 a 29.304814,29.298879 0 0 0 9.029497,-1.536653 c 8.227173,-2.670064 14.359233,-7.680382 17.230853,-14.183277 a 2.3977971,2.3973115 0 0 0 0.11524,-0.28702 c 2.13935,-8.61311 2.8709,-26.37008 3.24421,-35.1985 0.10051,-2.44037 -0.12891,-9.77638 -0.12892,-9.77638 l 13.91242,21.0738 c 4.80996,7.47903 8.19836,11.18305 12.92217,14.18327 a 22.972906,22.968254 0 0 0 12.16238,3.18655 33.396862,33.390099 0 0 0 10.30881,-1.6948 c 9.64863,-3.1438 15.4352,-9.38703 17.33047,-18.66046 6.99237,13.20674 19.54088,22.50851 35.33477,25.73842 a 58.595269,58.583403 0 0 0 11.7151,1.20667 49.104587,49.094643 0 0 0 35.24883,-14.35704 v 0.20111 a 23.963613,23.95876 0 0 0 3.56257,17.22729 21.537099,21.532738 0 0 0 15.34799,8.800104 23.963613,23.95876 0 0 0 3.30282,0.228452 18.751634,18.747837 0 0 0 10.84008,-3.272465 33.19585,33.189127 0 0 0 19.19573,8.612674 47.094458,47.084921 0 0 0 6.03138,0.40222 46.146825,46.13748 0 0 0 31.15694,-12.474803 53.297142,53.28635 0 0 0 23.68999,-26.269512 19.59876,19.594792 0 0 0 5.22667,4.75053 20.244873,20.240774 0 0 0 18.09219,10.12199 26.418842,26.413492 0 0 0 3.80478,-0.28703 19.412106,19.408175 0 0 0 12.77763,-6.77727 31.903623,31.897163 0 0 0 14.66047,3.51848 44.782809,44.77374 0 0 0 24.85407,-7.7516 20.962777,20.958532 0 0 0 4.91026,8.61268 20.948419,20.944177 0 0 0 18.66448,18.834226 23.90618,23.901339 0 0 0 3.33211,0.228452 h 1.01955 a 14.918031,14.91501 0 0 0 -2.87312,4.637288 13.051482,13.048839 0 0 0 -0.51563,7.810174 24.710232,24.705229 0 0 0 4.16416,6.54492 c 4.04897,4.46446 13.40948,10.235071 21.32078,12.603676 a 14.243202,14.240318 0 0 0 4.13486,0.632621 13.625805,13.623046 0 0 0 13.05107,-10.221565 85.272555,85.255287 0 0 0 22.38525,4.865741 h 1.23441 a 13.195063,13.192391 0 0 0 13.25224,-12.918032 14.228843,14.225962 0 0 0 -8.03924,-13.681475 65.645079,65.631786 0 0 0 8.87325,-1.349198 66.894231,66.880685 0 0 0 30.07878,-15.245458 l 0.10157,-0.0996 a 39.814918,39.806855 0 0 0 5.98646,-6.73238 c 0.7897,-0.63163 1.53605,-1.26428 2.25396,-1.89591 l 0.10156,-0.0996 c 0.91892,-0.8326 1.76505,-1.66596 2.55475,-2.51293 a 46.261689,46.252322 0 0 0 35.89532,17.34054 c 1.32095,0 2.67065,4.3e-4 4.00595,-0.17183 a 33.71274,33.705912 0 0 0 19.21136,-7.75159 18.349609,18.345893 0 0 0 11.80299,3.99099 c 0.71791,0 1.43566,2.7e-4 2.21099,-0.0859 10.1368,-0.84696 17.45863,-7.17755 19.64106,-16.39356 a 20.101293,20.097222 0 0 0 6.17396,-9.43274 51.689038,51.678572 0 0 0 28.17055,15.44657 59.140875,59.128899 0 0 0 11.48658,1.17739 49.3056,49.295615 0 0 0 31.28585,-10.76632 c -0.10051,0.44501 -0.1997,0.90351 -0.27149,1.36287 a 20.488961,20.484812 0 0 0 5.12511,17.69981 22.039632,22.035169 0 0 0 8.61543,14.470299 c 8.15539,6.84741 19.03776,11.484579 32.36204,13.89625 a 87.483698,87.465982 0 0 0 15.49253,1.521027 47.381619,47.372024 0 0 0 28.42837,-8.612664 c 10.76854,-7.507754 17.93373,-19.738242 20.7192,-35.356662 l 1.43559,-7.82384 a 30.826768,30.820526 0 0 0 3.77742,3.94805 21.02021,21.015953 0 0 0 -2.31255,18.20161 18.895216,18.891388 0 0 0 4.58018,7.10725 20.000786,19.996736 0 0 0 0.86135,3.459909 c 3.47464,9.761512 15.09155,15.790216 30.35418,15.790216 a 55.694939,55.68366 0 0 0 18.37735,-3.116262 c 23.61903,-8.383412 36.03826,-29.928883 28.91666,-50.026103 a 32.162069,32.155555 0 0 0 -5.08214,-9.43274 c -0.11486,-0.38759 -0.24452,-0.76063 -0.35939,-1.10515 -0.11486,-0.34452 -0.14237,-0.41534 -0.22851,-0.63067 a 59.916211,59.904077 0 0 0 14.54329,2.30986 22.384226,22.379692 0 0 0 12.30495,-3.30174 45.328416,45.319236 0 0 0 17.57463,3.60438 33.210207,33.203482 0 0 0 17.7621,-4.75248 29.204306,29.198393 0 0 0 6.6467,-5.62723 14.358066,14.355159 0 0 0 12.9221,19.37899 14.688302,14.685327 0 0 0 3.4453,-0.41589 68.028518,68.014742 0 0 0 44.7549,-35.48552 13.927325,13.924504 0 0 0 -0.5312,-13.66585 14.774451,14.771459 0 0 0 -4.3067,-4.44985 c 0.359,-0.58857 0.7179,-1.17779 1.0625,-1.78072 a 13.568373,13.565625 0 0 0 0.086,-13.72248 14.745734,14.742748 0 0 0 -12.5354,-7.24979 13.338644,13.335942 0 0 0 -8.6154,3.1143 35.349559,35.342401 0 0 0 -6.8342,-19.1642 34.861385,34.854325 0 0 0 3.92,-18.35977 33.382504,33.375744 0 0 0 -6.7911,-17.97316 c -3.6757,-11.48413 -14.3575,-22.3077 -24.1353,-24.14515 a 17.559915,17.556359 0 0 0 -3.3595,-0.34365 z" />
    <path
       id="pBlueShadow"
       d="m 1042.3067,-270.69526 c -6.1188,-0.35085 -3.1166,6.91738 -3.3184,14.40001 -0.2154,7.98147 -3.5466,29.14071 -21.6665,50.77394 -18.11985,21.63322 -41.03477,21.9051 -54.71801,20.81411 -10.6824,-0.8613 -23.07327,-1.62053 -27.96937,-1.90763 a 43.232137,43.223383 0 0 0 -20.6899,2.46801 c -18.33525,6.50288 -27.75434,22.79581 -22.19777,38.4573 2.54138,7.17757 6.94921,12.17256 12.92217,14.56987 4.95353,1.80875 14.08483,2.70023 27.27989,2.49925 5.82937,0 8.4147,0.96211 9.3049,3.45991 1.11992,3.17249 -0.56018,5.82784 -4.73839,7.30642 a 20.445887,20.441746 0 0 1 -9.25997,0.8474 l -2.35552,-0.28897 -2.35551,-0.28703 -2.58405,-0.40027 a 17.358903,17.355387 0 0 0 -8.4416,0.55843 c -5.65707,2.00972 -9.04623,9.38924 -6.97866,15.23179 3.31671,9.330859 21.8963,13.063777 37.73325,7.450909 19.16801,-6.804339 29.2617,-23.328419 23.63333,-39.162169 a 24.265132,24.260218 0 0 0 -14.70344,-15.05801 c -5.12583,-1.73698 -14.15618,-2.87219 -24.50835,-2.87219 -6.60471,-0.10049 -9.64863,-1.26255 -10.46703,-3.60244 -0.81841,-2.33989 0.74533,-4.76606 3.74617,-5.82834 a 21.537099,21.532738 0 0 1 7.75408,-0.87474 c 0,0 26.44773,1.63687 38.83875,4.96727 12.39101,3.33039 21.86727,5.59755 27.39513,-2.18295 5.16891,4.11993 20.9344,8.9712 32.0476,2.09508 11.1132,-6.87612 10.9553,-20.52709 10.9553,-20.52709 0,0 5.2553,0.99084 13.0804,-3.71765 a 32.635884,32.629276 0 0 0 14.9613,-26.81623 c 0.3159,-12.14445 -9.592,-20.75748 -9.592,-20.75748 3.7044,-2.29683 7.0073,-8.21075 6.6915,-18.07274 -0.3159,-9.86199 -10.569,-21.87706 -18.4516,-23.36999 -0.4927,-0.0933 -0.9397,-0.15039 -1.3477,-0.17378 z m -649.36785,22.48158 a 13.496582,13.493849 0 0 0 -3.46492,0.0996 c -8.05487,1.14841 -12.33475,7.48027 -11.05688,16.40918 l 14.15656,99.05057 c 1.30658,9.10118 6.93629,13.82454 15.55113,12.59 5.614,-0.78953 8.58503,-3.7194 10.65258,-10.45196 8.61484,6.28755 14.35832,7.95257 22.97316,6.73236 22.22628,-3.17248 36.52679,-25.75279 32.79369,-51.83612 -3.86232,-26.95898 -23.23123,-44.01279 -46.20414,-40.73981 -8.74406,1.2489 -13.66927,4.2783 -19.69965,12.10186 l -0.57423,-0.0723 a 94.361211,94.342104 0 0 0 -1.23441,-16.07721 l -2.15434,-15.04434 c -0.61739,-4.37833 -1.2203,-6.07334 -2.74225,-8.01129 a 13.496582,13.493849 0 0 0 -8.9963,-4.75054 z m -234.38603,0.85717 c -1.78893,-0.0341 -3.71134,0.2668 -5.72865,0.92355 a 11.486453,11.484127 0 0 0 -8.11345,7.66569 c -0.74662,2.84232 -0.70291,5.25285 0.27344,16.82311 l 0.0996,2.00917 3.3614,31.45352 a 238.6167,238.56838 0 0 0 4.92394,30.56121 l -1.00589,0.32998 a 215.70123,215.65755 0 0 0 -15.79331,-26.67174 l -18.59417,-27.978 -1.16213,-1.85101 -1.2637,-1.62257 -1.16213,-1.851 a 57.030239,57.018691 0 0 0 -5.59973,-7.4802 c -4.07769,-3.91896 -8.24242,-4.77947 -14.129223,-2.87023 -5.384275,1.76568 -8.255487,4.3779 -9.289268,8.61266 a 58.868072,58.85615 0 0 0 -1.709022,16.73721 l 1.73832,35.42889 a 232.60067,232.55357 0 0 0 2.970768,30.26052 l -1.003928,0.32998 a 219.29075,219.24634 0 0 0 -14.013972,-27.04467 l -16.238639,-27.61873 c -6.633427,-11.2401 -8.299255,-13.48066 -11.687759,-15.92104 -2.6706,-1.90923 -6.145297,-2.26698 -10.179913,-0.96066 -8.069233,2.627 -11.586186,8.97263 -9.17403,16.37989 1.048139,3.18685 2.482315,5.88513 6.574364,12.73254 l 42.457969,69.85223 c 6.073462,10.04862 12.820299,13.062383 22.066894,10.047801 5.886809,-1.909241 10.167029,-5.339461 11.990499,-9.473751 1.43581,-3.87588 1.82325,-6.74756 1.43558,-15.36065 l -1.09182,-34.78261 a 216.07454,216.03079 0 0 0 -2.55475,-28.53837 l 0.81838,-0.20112 a 208.49348,208.45126 0 0 0 14.54329,24.66257 l 19.09612,28.92694 c 4.14948,6.4024 6.49164,9.17173 10.26781,11.48291 3.77616,2.31118 9.51883,2.46951 15.26206,0.60334 9.24659,-3.00023 12.92271,-9.4172 11.88893,-21.15972 l -6.80679,-81.46597 v -1.29063 l -0.25782,-1.43707 -0.10156,-1.43512 a 41.724541,41.716091 0 0 0 -1.77934,-10.04779 c -1.80911,-5.54468 -5.9616,-8.65878 -11.32837,-8.76106 z m 512.60898,0.48033 c -0.49481,1.2e-4 -1.00177,0.0217 -1.51956,0.0683 -8.28461,0.74646 -12.76516,6.63359 -12.00418,15.79217 l 1.27933,15.15759 a 94.935534,94.91631 0 0 0 2.39654,15.93471 l -0.68947,0.24407 c -7.62414,-6.28756 -13.10845,-8.13869 -21.39306,-7.43529 -23.26006,1.98102 -38.55051,22.75238 -36.32501,49.35248 2.32601,27.31787 20.87609,45.80771 43.96386,43.86975 7.94002,-0.66033 13.68233,-3.99103 20.50241,-11.65668 4.1064,6.37369 7.25252,8.26953 12.72294,7.81017 8.4569,-0.74647 13.1089,-6.63357 12.34792,-15.79218 l -8.3576,-99.75348 c -0.71342,-8.42468 -5.50192,-13.59344 -12.92412,-13.59165 z m -170.21665,14.90962 c -6.61125,0.28654 -11.07608,4.93107 -12.15652,12.89459 l -13.49835,99.16383 c -1.22044,8.94326 3.11725,15.24593 11.17213,16.33693 8.05488,1.09099 13.89709,-3.81856 15.11752,-12.76183 l 13.49834,-99.16577 c 1.2348,-9.14424 -2.94493,-15.20161 -11.17212,-16.32131 -1.0284,-0.13996 -2.01654,-0.18738 -2.961,-0.14644 z m -196.1352,1.67919 c -7.2937,-0.31501 -12.48678,4.52395 -13.61749,12.90826 l -13.41044,99.17944 c -1.26352,9.11553 2.87174,15.20346 11.48658,16.36622 5.614,0.73211 9.27411,-1.27758 13.10771,-7.17755 6.53292,8.41212 11.61608,11.554148 20.23092,12.716911 22.255,3.000227 42.15642,-14.813271 45.68851,-40.925311 3.64694,-26.98769 -10.36768,-48.69244 -33.34059,-51.79316 -8.75841,-1.17712 -14.32874,0.38792 -22.25439,6.27352 l -0.47462,-0.2304 a 94.102767,94.083711 0 0 0 3.21686,-15.79022 l 2.03911,-15.07364 c 0.58869,-4.37832 0.47301,-6.17272 -0.47462,-8.44084 a 13.43915,13.436428 0 0 0 -10.71117,-7.88046 c -0.50433,-0.0673 -1.00012,-0.11177 -1.48637,-0.13277 z m 440.9453,10.33676 c -21.02274,-0.11383 -38.04023,14.45111 -42.80173,38.1156 -5.3412,26.54269 8.58479,48.79365 33.55347,53.81795 25.65787,5.15351 46.89481,-9.86229 52.3078,-36.73515 5.39863,-26.8585 -8.68789,-49.18083 -33.82887,-54.23384 -3.14262,-0.63163 -6.22743,-0.9483 -9.23067,-0.96456 z m 96.08806,4.77397 c -20.39698,-0.40602 -37.44783,14.96332 -41.71577,38.93958 -4.68072,25.99719 8.61557,47.946 31.63156,52.03722 8.52869,1.52165 14.77435,-0.0715 23.38919,-6.24423 l 0.76173,0.54476 c -2.52701,7.17758 -4.29483,10.04895 -7.32438,12.91998 -4.04898,3.58883 -10.37964,4.80918 -17.68789,3.50286 a 42.600382,42.591756 0 0 1 -14.76009,-5.8713 c -8.15538,-4.67979 -8.96018,-5.18233 -11.22876,-5.58427 h -0.33009 a 11.773614,11.77123 0 0 0 -13.43975,9.81934 c -0.87584,4.88075 0.89197,9.14352 5.44348,12.81845 7.0211,5.914317 16.54,9.948695 28.3854,12.058906 16.54049,2.871035 27.43847,1.262884 37.48911,-5.742429 8.88764,-6.144007 14.87417,-16.580567 17.22889,-29.801677 l 11.70143,-65.63083 c 1.60811,-9.05812 -2.29659,-15.3466 -10.4807,-16.78212 -5.92988,-1.04792 -9.23194,0.50312 -13.53936,6.38873 -6.27447,-8.11066 -10.91204,-11.29702 -19.09613,-12.73254 -2.1712,-0.38759 -4.31784,-0.59843 -6.42787,-0.64043 z m -608.32008,8.3725 c -21.01548,-0.18271 -38.08484,14.33677 -42.90916,37.98868 -5.38427,26.49962 8.42728,48.82146 33.3816,53.91754 25.6435,5.23964 46.92193,-9.73284 52.42108,-36.57699 5.48478,-26.84414 -8.55646,-49.19428 -33.66872,-54.33343 -3.13903,-0.64239 -6.2226,-0.9697 -9.2248,-0.9958 z m 320.13011,10.67651 c -3.62406,-0.10183 -7.36844,0.27085 -11.20922,1.12857 -25.7153,5.74206 -38.99602,28.99683 -32.67847,57.30519 5.75758,25.7101 28.37171,39.319821 54.94849,33.37678 a 58.236317,58.224524 0 0 0 26.20175,-13.27924 c 6.02082,-5.51238 8.47165,-10.77548 7.35172,-15.79022 -1.34966,-6.04352 -7.33713,-10.32179 -13.08036,-9.04419 a 17.143531,17.140059 0 0 0 -6.30288,3.40133 c -7.8395,6.28757 -5.48427,4.49408 -6.92007,5.52766 a 29.233023,29.227104 0 0 1 -11.32838,5.25429 c -9.83528,2.19634 -16.90009,-1.14962 -21.2075,-9.76271 a 46.950877,46.941369 0 0 0 8.61543,-1.36288 l 37.40317,-8.3686 c 7.76771,-1.73698 10.00646,-5.48466 8.24042,-13.4374 a 47.999016,47.989296 0 0 0 -11.34205,-21.53266 c -8.03334,-8.53772 -17.81985,-13.11042 -28.69205,-13.41592 z m 192.77575,1.62647 c 1.16648,-0.037 2.36105,0.0625 3.5743,0.30654 9.70606,1.9523 14.90414,12.00025 12.4202,24.31698 -2.39781,11.95785 -11.05613,19.07876 -20.76218,17.11209 -9.70606,-1.96665 -14.75951,-11.81588 -12.31863,-23.94598 v 0.0156 c 2.13576,-10.61385 8.92094,-17.54598 17.08631,-17.80524 z m -316.74724,3.60049 c 9.05305,-0.21549 16.60277,7.60334 18.2719,19.25794 1.7804,12.43156 -3.80467,22.14926 -13.78352,23.58477 -10.32345,1.46422 -17.8037,-5.85698 -19.71332,-19.16422 h -0.043 c -1.79476,-12.60383 3.58816,-22.1357 13.43779,-23.52814 0.61561,-0.0871 1.22659,-0.13598 1.83012,-0.15035 z m 415.5795,1.70067 c 0.60033,0.0353 1.20728,0.10622 1.8184,0.21477 9.77784,1.73698 14.87422,11.26947 12.64872,23.80151 -2.42652,13.63741 -10.12269,20.52858 -20.561,18.6624 -9.74912,-1.72261 -14.84688,-11.44126 -12.62138,-23.97332 2.05949,-11.65459 9.71039,-19.2347 18.71526,-18.70536 z m -198.40868,6.6816 c 8.94704,0.25791 15.53141,8.08276 16.51404,19.80465 1.16299,13.75224 -4.49376,22.56657 -14.889,23.44223 -9.93578,0.81825 -17.50111,-7.59418 -18.54924,-20.09753 -1.03378,-12.33108 5.23986,-22.28034 15.10385,-23.09859 0.6165,-0.0512 1.22388,-0.068 1.82035,-0.0508 z m -412.73373,1.09928 c 1.16696,-0.0305 2.36104,0.077 3.5743,0.32998 9.70605,2.02408 14.86059,12.10052 12.34792,24.40289 -2.44086,11.95785 -11.12712,19.0065 -20.81882,17.03985 -9.69169,-1.96666 -14.71594,-11.84323 -12.24636,-23.97333 v -0.043 c 2.17345,-10.60128 8.97426,-17.5427 17.14296,-17.75643 z m 318.1457,7.04673 c 6.38518,0.18825 11.14164,4.27758 14.31477,12.54704 a 22.972906,22.968254 0 0 0 -6.15834,0.83374 l -17.94765,4.01834 a 42.571667,42.563046 0 0 0 -8.17011,2.37038 c 0.2728,-10.93863 4.81028,-17.38454 13.28154,-19.27942 1.64759,-0.36875 3.20629,-0.53353 4.67979,-0.49008 z m -226.46984,9.76271 c 0.59505,0.0132 1.19751,0.062 1.80863,0.1445 9.77784,1.32067 15.76614,11.39657 14.08625,23.84251 -1.6799,12.44592 -9.63533,20.28514 -19.68599,18.93576 -10.39524,-1.43552 -15.59193,-10.5092 -13.79717,-23.8308 l 0.0566,0.0293 c 1.60182,-11.82956 8.60584,-19.31951 17.53164,-19.12127 z"
       style="fill:#91cee5" />
    <path
       id="pPinkLetters"
       d="m 1036.8496,-281.19409 c -6.1189,-0.30984 -3.1146,6.90763 -3.3165,14.39025 -0.2153,7.98147 -3.5472,29.1414 -21.6528,50.76027 -18.1055,21.61886 -41.04848,21.91945 -54.73171,20.81411 -10.69677,-0.86131 -23.07327,-1.60686 -27.96937,-1.89396 a 43.232137,43.223383 0 0 0 -20.68991,2.46801 c -18.33525,6.44547 -27.75559,22.72484 -22.21338,38.40067 2.54138,7.17758 6.94921,12.15821 12.92216,14.56988 4.95354,1.80875 14.08678,2.70022 27.28185,2.49926 5.82937,0 8.41275,0.96015 9.30295,3.45795 1.11992,3.17249 -0.56019,5.82978 -4.73839,7.30837 a 20.646899,20.642719 0 0 1 -9.25997,0.84545 l -2.35552,-0.28703 -2.35358,-0.28702 -2.58598,-0.40222 a 17.358903,17.355387 0 0 0 -8.4416,0.54671 c -5.65707,2.00972 -9.04622,9.40291 -6.97866,15.24546 3.31671,9.33085 21.8963,13.062504 37.73325,7.43528 19.16801,-6.79 29.2617,-23.31279 23.63333,-39.14654 a 24.265132,24.260218 0 0 0 -14.70344,-15.04435 c -5.12585,-1.73697 -14.1562,-2.87071 -24.50836,-2.94248 -6.60471,-0.10049 -9.64862,-1.26254 -10.46703,-3.60244 -0.8184,-2.33989 0.74729,-4.76606 3.74813,-5.82834 a 21.537099,21.532738 0 0 1 7.75213,-0.8767 c 0,0 26.44725,1.63756 38.76648,4.95361 12.31922,3.31604 21.86728,5.61317 27.39513,-2.16733 5.16891,4.11993 20.93449,8.97121 32.04759,2.09509 11.1131,-6.87613 10.9553,-20.5271 10.9553,-20.5271 0,0 5.2696,0.98891 13.0804,-3.71959 a 32.707675,32.701052 0 0 0 14.9476,-26.81428 c 0.4163,-12.08704 -9.4904,-20.71453 -9.4904,-20.71453 3.7043,-2.29682 7.0054,-8.19708 6.6895,-18.05907 -0.3159,-9.86201 -10.567,-21.87785 -18.4496,-23.31337 -0.4926,-0.0897 -0.9417,-0.14336 -1.3496,-0.16402 z m -874.95686,18.18599 c -1.78937,-0.0677 -3.72042,0.19499 -5.75208,0.81226 a 11.486453,11.484127 0 0 0 -8.25604,7.50753 c -0.77534,2.82797 -0.77534,5.23977 0,16.83874 v 2.00916 l 2.77154,31.49648 c 1.27787,13.85273 3.35945,30.9771 3.35945,30.9771 l -15.69371,-27.04468 -17.58827,-28.17911 -3.50399,-5.39682 a 56.65693,56.645457 0 0 0 -5.4552,-7.57978 c -4.02026,-3.96202 -8.14269,-4.90939 -14.072577,-3.10064 -5.412991,1.65085 -8.327544,4.20677 -9.447474,8.42718 -1.019423,3.27298 -1.593785,11.59822 -1.593785,18.97677 l 1.164087,33.13076 2.039108,30.20389 c 0,0 -8.013009,-15.30296 -14.531571,-26.98806 L 59.53891,-208.83673 c -6.432413,-11.35493 -8.040855,-13.63871 -11.400643,-16.12215 -2.627526,-1.96667 -6.087281,-2.397 -10.150614,-1.1481 -8.112307,2.46908 -11.745348,8.75648 -9.476773,16.19245 0.990706,3.27297 2.369345,6.00078 6.332171,12.91997 l 41.106378,70.6274 c 5.901165,10.22087 12.579269,13.39329 21.883296,10.52226 5.929885,-1.80876 10.265165,-5.16775 12.160425,-9.25897 1.60811,-3.84718 2.01102,-6.71828 1.78129,-15.33136 l -0.44532,-34.8119 -2.08208,-28.58133 0.86135,-0.18549 14.07062,24.90664 18.50822,29.18272 c 4.03461,6.5316 6.59071,9.44714 10.051,11.71526 3.69002,2.39731 9.50321,2.65409 15.24644,0.8884 9.30403,-2.82796 13.10969,-9.15808 12.29128,-20.92931 l -5.31262,-81.57921 v -1.29259 l -0.24414,-1.43512 -0.0723,-1.43707 a 41.810689,41.802223 0 0 0 -1.59375,-10.04779 c -1.70143,-5.57698 -5.79229,-8.76286 -11.1604,-8.96608 z m 515.92937,4.88917 c -0.48593,-0.003 -0.98219,0.0145 -1.48832,0.0566 -8.09794,0.67468 -12.76584,6.57615 -11.9905,15.79217 l 1.2637,15.15759 c 0,0 1.43563,15.96443 1.14846,15.79217 -7.17903,-5.74206 -12.82138,-7.69409 -20.81882,-7.01939 -23.26007,1.9523 -38.55052,22.75238 -36.32502,49.35249 2.29729,27.2748 20.87609,45.80768 43.96386,43.86974 7.92566,-0.66035 13.68233,-3.97669 20.50241,-11.65669 4.07769,6.40239 7.18072,8.26759 12.72294,7.80822 8.51433,-0.78953 13.10891,-6.68824 12.34793,-15.84684 l -8.37128,-99.72615 c -0.71341,-8.42469 -5.66645,-13.53047 -12.95536,-13.57994 z m -291.57286,2.94834 a 13.424792,13.422074 0 0 0 -3.46686,0.10935 c -8.04053,1.14841 -12.31845,7.47899 -11.05494,16.39355 l 14.15657,99.05057 c 1.30657,9.10117 6.97671,13.82386 15.56284,12.60367 5.59964,-0.80389 8.61568,-3.7318 10.65452,-10.45001 8.61485,6.27321 14.35833,7.95324 22.97317,6.71869 22.19757,-3.17249 36.48383,-25.75474 32.75073,-51.83806 -3.84797,-26.95899 -23.26064,-44.0128 -46.19047,-40.73982 -8.61485,1.23454 -13.48219,4.16467 -19.34028,11.62935 l -1.24807,-8.48576 c -0.17229,-1.95231 -0.44555,-4.07683 -0.89065,-7.17755 l -2.15435,-15.05801 c -0.63174,-4.37832 -1.23395,-6.07208 -2.75591,-7.99567 a 13.424792,13.422074 0 0 0 -8.9963,-4.7603 z m 109.00632,10.72923 c -6.61831,0.28654 -11.07523,4.93106 -12.16824,12.89459 l -13.49638,99.16382 c -1.20608,8.94327 3.11529,15.24594 11.17016,16.33694 8.05488,1.09099 13.9134,-3.81925 15.11948,-12.74816 l 13.49638,-99.17944 c 1.24915,-9.14424 -2.91497,-15.20161 -11.15649,-16.32131 -1.03019,-0.13996 -2.01944,-0.18738 -2.96491,-0.14644 z m -180.33406,6.93153 c -7.28344,-0.32525 -12.4907,4.5259 -13.62139,12.91021 l -13.39679,99.17945 c -1.2348,9.10117 2.94353,15.20345 11.48658,16.36621 5.61401,0.74648 9.27674,-1.24888 13.09599,-7.17755 6.54728,8.36906 11.64411,11.55415 20.24459,12.71692 22.255,3.00023 42.15516,-14.8289 45.67289,-40.94093 3.69002,-26.95899 -10.33907,-48.64949 -33.29762,-51.75021 -8.61484,-1.16276 -14.15601,0.34618 -21.89501,6.00212 l 1.293,-8.88603 c 0.3446,-1.83746 0.64487,-3.90465 1.0469,-6.89052 l 2.03911,-15.07364 c 0.58867,-4.37832 0.47427,-6.17272 -0.459,-8.44084 a 13.467867,13.465139 0 0 0 -10.7268,-7.88047 c -0.50343,-0.0682 -0.99689,-0.11304 -1.48245,-0.13472 z m 431.27906,7.94099 c -21.02274,-0.11383 -38.04218,14.45112 -42.80368,38.1156 -5.32685,26.54268 8.58674,48.79365 33.55542,53.81796 25.62915,5.1535 46.87988,-9.89102 52.27851,-36.73516 5.41299,-26.87287 -8.6586,-49.18083 -33.79958,-54.23384 -3.14262,-0.63163 -6.22743,-0.9483 -9.23067,-0.96456 z m 90.31644,3.10845 c -20.39697,-0.40602 -37.44782,14.96332 -41.71576,38.93958 -4.6233,25.93977 8.71529,47.88938 31.6882,51.9806 8.52869,1.52165 14.77436,-0.0715 23.38919,-6.24423 l 0.70314,0.60333 c -2.52701,7.17758 -4.29287,10.04895 -7.32243,12.91998 -4.04897,3.58883 -10.37964,4.79288 -17.68789,3.50091 a 42.600382,42.591756 0 0 1 -14.76008,-5.87129 c -8.15538,-4.67978 -8.9602,-5.18233 -11.22877,-5.58428 h -0.33009 a 11.773614,11.77123 0 0 0 -13.43975,9.81934 c -0.87584,4.8664 0.89002,9.14548 5.44153,12.8204 7.02109,5.91433 16.54193,9.94675 28.38734,12.05696 16.54049,2.871022 27.43651,1.26484 37.48716,-5.74048 8.88764,-6.144 14.87613,-16.58056 17.23085,-29.80166 l 11.70143,-65.6328 c 1.62246,-9.05811 -2.29661,-15.34465 -10.4807,-16.78016 -5.91553,-1.04793 -9.21828,0.50242 -13.52569,6.40239 -6.28884,-8.12502 -10.92764,-11.31264 -19.11174,-12.74816 -2.17122,-0.38758 -4.3159,-0.59843 -6.42594,-0.64043 z m -606.37277,9.03052 c -21.02371,-0.48753 -38.30339,13.76973 -43.47948,37.34629 -5.81502,26.41349 7.69632,48.93634 32.57885,54.40566 25.55737,5.62723 47.06553,-9.01579 52.95234,-35.78815 5.88681,-26.77238 -7.78184,-49.33722 -32.83666,-54.83524 -3.13185,-0.68726 -6.21166,-1.05892 -9.21505,-1.12856 z m 331.89406,12.58804 c -3.62407,-0.1016 -7.36845,0.27086 -11.20924,1.12857 -25.7153,5.74206 -38.996,28.99878 -32.67845,57.30715 5.74323,25.71009 28.3717,39.31786 54.94848,33.37482 a 58.236317,58.224524 0 0 0 26.2037,-13.27925 c 6.02081,-5.53152 8.4697,-10.79872 7.34977,-15.80388 -1.34966,-6.02917 -7.38022,-10.30813 -13.08036,-9.03052 a 16.827654,16.824246 0 0 0 -6.30287,3.40329 c -7.83952,6.2732 -5.52736,4.49213 -6.92008,5.52569 a 29.434035,29.428076 0 0 1 -11.32838,5.2543 c -9.64862,2.15327 -16.64031,-1.00407 -20.94773,-9.27263 l 45.75883,-10.23523 c 7.76771,-1.73698 10.04953,-5.48464 8.24041,-13.4374 a 48.128239,48.118492 0 0 0 -11.34205,-21.53266 c -8.03334,-8.52697 -17.81984,-13.09742 -28.69203,-13.40225 z m 184.82244,0.76345 c 1.16685,-0.0356 2.36104,0.0645 3.5743,0.3085 9.70605,1.95231 14.90414,12.0146 12.4202,24.31697 -2.39781,11.95784 -11.05613,19.06439 -20.76218,17.1121 -9.70606,-1.9523 -14.7595,-11.81393 -12.31863,-23.94405 2.12319,-10.65153 8.91839,-17.54467 17.08631,-17.79352 z m 93.13096,3.46576 c 0.60022,0.0352 1.20729,0.10817 1.8184,0.21673 9.77785,1.73697 14.87422,11.26751 12.64872,23.79955 -2.42651,13.63741 -10.12269,20.52858 -20.561,18.66241 -9.74913,-1.73697 -14.84492,-11.44127 -12.61942,-23.97333 v -0.0566 c 2.07294,-11.5873 9.70994,-19.17676 18.7133,-18.64874 z m -416.94866,2.74332 c 9.15101,-0.23598 16.53894,7.6092 18.24845,19.26379 1.82348,12.43157 -3.80465,22.14926 -13.78351,23.58478 h -0.043 c -10.3378,1.43552 -17.8037,-5.85699 -19.71333,-19.16422 -1.79475,-12.60383 3.44459,-22.10698 13.4378,-23.52815 0.62458,-0.0888 1.24349,-0.14047 1.85356,-0.1562 z m 230.48556,4.06911 c 8.8179,0.2579 15.50686,8.0808 16.54334,19.80269 1.14864,13.78095 -4.49376,22.59585 -14.889,23.47152 v -0.0293 c -9.87835,0.81824 -17.50111,-7.57984 -18.54924,-20.09754 -1.04815,-12.5177 5.41215,-22.27838 15.10384,-23.09663 0.60573,-0.0512 1.2032,-0.068 1.79106,-0.0508 z m -423.18123,1.81391 c 1.16729,-0.0152 2.36073,0.10752 3.5704,0.37489 9.67734,2.13892 14.68786,12.28806 11.98854,24.54737 -2.62752,11.91478 -11.38563,18.87611 -21.06296,16.7372 -9.67735,-2.13893 -14.54518,-12.07178 -11.88894,-24.15882 2.3242,-10.57616 9.22191,-17.39446 17.39296,-17.50064 z m 330.16354,8.90359 c 6.28607,0.16161 11.02451,4.09075 14.20931,12.05696 l -5.92982,1.31992 -17.94766,4.00467 -8.12518,1.82367 c 0.40203,-10.57974 4.88034,-16.85286 13.19365,-18.71903 1.61528,-0.36067 3.14908,-0.52348 4.5997,-0.48619 z m -224.70222,11.29156 c 0.6053,0.0146 1.22117,0.0641 1.84574,0.1484 9.99321,1.34937 15.80912,11.35362 14.12922,23.79955 -1.67989,12.44592 -9.67831,20.28503 -19.72895,18.97871 -10.33781,-1.43551 -15.5353,-10.4799 -13.74054,-23.8015 1.60182,-11.82954 8.41493,-19.3439 17.49453,-19.12516 z"
       style="fill:#e6559f" />
    <path
       id="pWhiteShine"
       style="fill:#ffffff"
       d="m 1040.0508,-273.30581 a 1.8091164,1.80875 0 0 0 -1.7227,1.72214 v 7.65007 a 1.795,1.7946365 0 0 0 3.59,0 v -7.65007 a 1.7947583,1.7943949 0 0 0 -1.8673,-1.72214 z m -874.67557,13.38273 c -1.71156,-0.0685 -2.90595,2.40603 -1.10939,3.29785 3.44593,1.78004 3.9067,6.45933 4.02157,9.91892 0.0718,2.29682 3.66171,2.32554 3.58992,0 -0.15795,-4.75156 -1.13533,-10.60789 -5.74427,-13.01956 -0.25845,-0.12561 -0.51332,-0.18742 -0.75783,-0.19721 z m 511.95663,4.5631 c -1.95632,0.0739 -2.67932,3.13537 -0.53908,3.48529 l -0.043,0.0859 a 7.9400107,7.9384028 0 0 1 4.50791,1.86663 9.5050399,9.5031151 0 0 1 2.13873,4.77983 c 0.50253,2.25376 3.96354,1.30677 3.46101,-0.94699 a 12.649457,12.646895 0 0 0 -3.02936,-6.3731 10.854698,10.8525 0 0 0 -6.08802,-2.87219 c -0.1409,-0.0233 -0.2778,-0.0303 -0.40822,-0.0254 z m -291.78574,2.72379 c -2.07172,-0.0502 -1.9748,3.32628 0.20898,3.6044 a 6.6047105,6.603373 0 0 1 6.1017,5.91425 c 0.25844,2.26812 3.84837,2.29683 3.58993,0 -0.58869,-5.46931 -4.30736,-8.82833 -9.69163,-9.50303 -0.0713,-0.009 -0.14216,-0.014 -0.20898,-0.0156 z m -282.79141,9.77248 c -0.97975,0.006 -1.98983,0.13811 -3.013739,0.39246 a 1.8091164,1.80875 0 0 0 -1.162136,2.26691 1.7804002,1.7800396 0 0 0 2.111375,1.15005 6.2888331,6.2875595 0 0 1 7.53728,2.87023 1.7952178,1.7948542 0 0 0 3.10163,-1.80805 c -1.96301,-3.30841 -5.07532,-4.89208 -8.57441,-4.8716 z m 394.68255,1.94083 c -1.96662,0.0621 -2.67759,3.12583 -0.55079,3.4892 a 6.7770073,6.7756349 0 0 1 6.07239,6.40239 c 0.28717,2.25375 3.8771,2.28247 3.58993,0 -0.67482,-5.1248 -3.38888,-8.95792 -8.70136,-9.8623 -0.14179,-0.0242 -0.27907,-0.0334 -0.41017,-0.0293 z m -179.99617,6.57617 c -1.77406,0.036 -2.36518,2.93437 -0.36134,3.54582 v 0.0137 c 3.79054,1.16277 4.9102,4.0629 4.13487,7.78089 -0.47382,2.2394 2.9872,3.21509 3.46101,0.94698 1.17737,-5.65594 -0.90536,-10.43576 -6.64858,-12.20144 -0.2073,-0.0633 -0.40243,-0.0896 -0.58596,-0.0859 z m 440.36129,9.6397 a 1.7957661,1.7954025 0 0 0 -0.40429,3.52435 v -0.0293 c 6.54728,1.67955 13.82641,5.2539 17.34413,11.29743 a 1.7952182,1.7948546 0 0 0 3.10163,-1.80806 c -3.99155,-6.84742 -12.03102,-11.03945 -19.48285,-12.91998 a 1.7957661,1.7954025 0 0 0 -0.55862,-0.0644 z m -715.082201,0.82788 c -1.953326,-0.0617 -2.654567,2.9628 -0.5547,3.51458 2.871614,0.67469 4.824575,3.48835 6.332171,5.8713 1.220436,1.93795 4.307709,0.14298 3.101632,-1.82368 -2.01013,-3.15814 -4.622928,-6.60315 -8.47089,-7.50753 -0.14089,-0.0332 -0.277992,-0.0506 -0.408213,-0.0547 z m 806.332271,3.54973 c -1.58806,0.0653 -2.61523,2.41482 -0.88283,3.32322 h -0.0137 a 20.41717,20.413036 0 0 1 8.18377,7.73793 1.7952207,1.7948571 0 0 0 3.10163,-1.80805 23.848748,23.843919 0 0 0 -9.46114,-9.03051 c -0.31859,-0.16823 -0.63367,-0.23468 -0.92776,-0.22259 z m -415.16151,1.1188 c -2.07254,0.0158 -1.99066,3.4046 0.20703,3.66883 a 18.320893,18.317183 0 0 1 9.97873,4.30731 c 1.70862,1.536 4.30712,-0.99185 2.54108,-2.54221 a 22.527806,22.523245 0 0 0 -12.51981,-5.42612 c -0.0713,-0.007 -0.14018,-0.008 -0.20703,-0.008 z m 445.54109,3.53996 a 1.8091164,1.80875 0 0 0 -1.45511,0.56039 1.8234744,1.8231051 0 0 0 0,2.45434 h 0.0156 a 8.0692332,8.0675993 0 0 1 2.08208,7.982 1.795764,1.7954004 0 0 0 3.45906,0.96065 11.73054,11.728164 0 0 0 -3.01569,-11.48291 1.8091164,1.80875 0 0 0 -1.08596,-0.47447 z m -231.2473,0.7322 a 20.445887,20.441746 0 0 0 -3.52547,0.43152 1.7957661,1.7954025 0 0 0 0.96097,3.45796 16.684073,16.680694 0 0 1 13.28154,2.94443 c 1.80911,1.43552 4.3071,-1.12105 2.54106,-2.54221 a 20.445887,20.441746 0 0 0 -13.2581,-4.2917 z m -81.18343,14.70852 c -2.09862,0.0549 -2.01456,3.44166 0.21094,3.59463 a 19.369031,19.365109 0 0 1 13.79718,6.83195 c 1.4358,1.79439 3.97688,-0.76022 2.54107,-2.54026 a 22.872399,22.867768 0 0 0 -16.33825,-7.88047 c -0.0722,-0.005 -0.14325,-0.008 -0.21094,-0.006 z m 351.98434,7.52119 c -5.09972,-0.005 -9.81816,1.66166 -14.41633,4.01053 -2.05321,1.04793 -0.24458,4.15052 1.80863,3.10259 a 26.088607,26.083323 0 0 1 14.81674,-3.41695 c 2.29729,0.21533 2.28294,-3.37345 0,-3.58878 -0.74483,-0.0718 -1.48051,-0.10674 -2.20904,-0.10739 z m -565.03593,2.30206 c -1.74024,-0.0486 -2.32289,2.85958 -0.3711,3.5751 h 0.0137 a 21.881693,21.877262 0 0 1 10.76782,8.85673 c 1.26351,1.90923 4.38019,0.11554 3.08796,-1.80805 a 25.844519,25.839286 0 0 0 -12.92216,-10.50859 c -0.20326,-0.074 -0.39617,-0.11017 -0.57619,-0.11519 z m 590.42907,33.62474 c -1.95486,-0.0515 -2.66803,2.96086 -0.5547,3.51262 a 12.793037,12.790447 0 0 1 8.61347,6.87687 c 1.04813,2.06714 4.14978,0.24472 3.10163,-1.80806 a 16.238973,16.235685 0 0 0 -10.75414,-8.52871 c -0.1409,-0.0323 -0.27594,-0.0493 -0.40626,-0.0527 z" />
    <path
       id="pPurpleSprinkles"
       d="m 156.55278,-309.94138 c -2.68855,0 -5.33754,1.73088 -5.26575,5.19767 a 73.226138,73.21131 0 0 0 2.62701,17.81501 c 1.83783,6.67514 12.23328,3.84601 10.38109,-2.8722 a 61.208437,61.196041 0 0 1 -2.24028,-14.95843 c -0.0862,-3.45242 -2.81353,-5.18206 -5.50207,-5.18205 z m -28.21157,10.45001 c -1.44478,0.052 -2.89884,0.62568 -3.83211,1.56594 -2.26858,2.25376 -1.79476,5.31028 0,7.60711 v -0.0137 a 141.32644,141.29783 0 0 0 10.72485,12.51776 c 4.86738,4.93817 12.47887,-2.67089 7.61148,-7.60906 a 143.22172,143.1927 0 0 1 -10.72679,-12.50214 c -0.89738,-1.14841 -2.33264,-1.61798 -3.77743,-1.56594 z m -16.77576,22.96582 c -1.93409,-0.0131 -3.95102,1.10351 -4.88878,2.70232 a 5.5134974,5.5123809 0 0 0 1.92387,7.37866 71.862122,71.847569 0 0 0 13.41045,7.70864 5.5709297,5.5698016 0 0 0 7.3654,-1.93888 c 1.3353,-2.28247 0.74741,-6.18591 -1.93755,-7.36304 a 72.221073,72.206449 0 0 1 -13.39677,-7.70864 c -0.73585,-0.53383 -1.59749,-0.77312 -2.47662,-0.77906 z m 583.2707,2.82337 c -1.93694,-0.009 -3.96479,1.12304 -4.89269,2.72185 -1.6081,2.74183 -0.41649,5.62607 1.92388,7.36304 a 16.755863,16.752471 0 0 1 6.54897,11.82851 c 0.58869,6.84741 11.37086,6.90483 10.76782,0 a 28.629985,28.624186 0 0 0 -11.87331,-21.13043 c -0.73137,-0.53831 -1.59424,-0.77876 -2.47467,-0.78297 z m 312.38585,24.00457 c -2.1437,-0.0495 -4.2099,1.1056 -4.8165,3.85237 -1.6512,7.59388 -3.7346,16.30737 -9.8655,21.53265 -5.2694,4.53623 2.38317,12.11658 7.6095,7.60906 v 0.0703 c 7.5093,-6.47418 10.6119,-16.99656 12.6507,-26.34176 0.8525,-4.00599 -2.4452,-6.65025 -5.5782,-6.72261 z m 75.0505,45.28144 c -1.6545,-0.0253 -3.3055,0.73757 -4.3868,2.62617 -5.5997,9.70409 -13.0385,18.47595 -23.0748,23.71558 -6.1453,3.2012 -0.7174,12.48945 5.4279,9.28826 11.6013,-6.04353 20.4893,-16.36508 26.9361,-27.5621 2.3888,-4.13519 -1.2628,-8.01225 -4.9024,-8.06791 z m 3.3027,20.23029 c -1.6146,-0.007 -3.1937,0.79035 -4.172,2.7238 a 48.961006,48.951091 0 0 1 -32.6374,26.03913 c -6.7339,1.65083 -3.8752,12.04423 2.8732,10.39338 h -0.016 a 59.456753,59.444712 0 0 0 39.083,-30.99272 c 2.142,-4.24374 -1.5789,-8.1482 -5.1311,-8.16359 z M 34.239523,-152.98423 c -3.588248,0.031 -7.276129,3.90854 -5.025502,8.11282 a 145.31799,145.28856 0 0 0 16.799199,23.94404 c 4.422284,5.34012 12.003112,-2.31006 7.609543,-7.60711 A 131.66347,131.63681 0 0 1 38.505242,-150.3112 c -1.023012,-1.90654 -2.634698,-2.68714 -4.265719,-2.67303 z m -5.349728,25.50412 c -3.781107,0.14198 -7.226851,5.44137 -3.953213,9.42492 a 88.589269,88.57133 0 0 0 28.19789,22.63779 c 6.15961,3.143784 11.61618,-6.14377 5.427854,-9.30191 a 80.922061,80.905675 0 0 1 -26.0162,-20.94493 c -1.098392,-1.33862 -2.395961,-1.86319 -3.656331,-1.81587 z m 493.094875,30.660788 c -4.67958,0.04599 -7.72372,7.129916 -2.67193,10.073169 a 76.930519,76.914941 0 0 0 32.67846,10.176659 c 6.90622,0.574208 6.86315,-10.192114 0,-10.766323 a 64.266705,64.253691 0 0 1 -27.2799,-8.714204 c -0.93776,-0.545048 -1.86003,-0.777819 -2.72663,-0.769301 z m -21.79149,5.992355 c -4.28158,-0.03509 -8.05933,5.374479 -4.05478,9.075426 v -0.04299 a 46.347838,46.338452 0 0 0 18.04923,10.350427 c 6.66215,1.995375 9.50458,-8.384353 2.87115,-10.379718 a 33.942469,33.935595 0 0 1 -13.31083,-7.534866 c -1.11813,-1.020556 -2.35593,-1.458485 -3.55477,-1.468312 z"
       style="fill:#8579b8" />
    <path
       d="m 181.21275,-244.76829 c 7.94087,0.96904 16.79893,8.34035 20.54638,13.49384 3.74746,5.15351 15.4065,4.72799 21.09201,4.90947 6.90653,0.22046 17.15473,-2.94003 29.1038,10.66588 17.51368,19.9421 16.31076,40.19445 -0.93328,59.70311 -17.24403,19.50866 -38.52269,18.54686 -63.17549,-4.85205 -24.6528,-23.39891 -32.3918,-36.69178 -28.88842,-57.17659 3.50336,-20.48481 16.78543,-27.41112 22.255,-26.74366 z"
       id="pDogHead"
       style="fill:#91cee5" />
    <path
       id="pDogEyeMouth"
       style="fill:#ffffff"
       d="m 164.50777,-233.33057 c -2.43899,3.92077 -4.4648,8.96045 -5.55002,15.30594 -1.12826,6.59711 -1.06986,12.44636 0.32333,18.12941 3.35458,4.36416 7.43935,8.34551 12.9417,9.96383 1.24794,0.36704 2.53526,0.57406 3.83211,0.67558 6.33733,0.49607 12.50739,-2.23114 16.36951,-7.27908 3.73687,-4.88424 4.45371,-11.41725 2.4981,-16.19244 -1.54495,-3.77247 -3.10777,-5.19199 -5.2091,-6.88467 -2.19319,-1.64443 -4.79239,-2.87757 -7.14664,-3.81332 -5.74468,-2.28336 -8.39205,-2.79053 -11.35572,-4.53381 -2.22037,-1.30603 -4.38747,-2.87156 -6.70327,-5.37144 z m 66.61084,26.02936 c -10.57006,1.1e-4 -19.13881,8.56699 -19.13909,19.13492 -8e-4,10.56869 8.56826,19.13676 19.13909,19.13688 10.57083,-1.2e-4 19.13989,-8.56819 19.13909,-19.13688 -2.8e-4,-10.56793 -8.56903,-19.13481 -19.13909,-19.13492 z" />
    <path
       id="pDogEyeMouthNoseEars"
       d="m 188.80323,-262.72806 c -5.51968,0.0221 -10.35769,3.68499 -11.88699,8.98755 -1.90485,6.60476 2.28464,11.8431 8.96114,13.78106 6.67651,1.93794 11.95383,-0.57554 13.85382,-7.17755 1.9049,-6.61909 -0.81689,-13.17888 -7.42204,-15.10098 -1.1388,-0.33139 -2.31988,-0.49484 -3.50593,-0.49008 z m -24.29937,29.39358 c -0.61921,0.9881 -1.18001,1.9971 -1.68949,3.04598 1.41646,1.47414 2.9893,2.79054 4.67392,3.94217 -1.64911,3.52147 -2.83653,7.45365 -3.63875,11.44777 -0.96021,4.78065 -1.37873,9.61705 -1.50393,13.48621 -0.94792,-1.17722 -1.63616,-2.1831 -2.48638,-3.39157 l -1.64848,-2.34305 c 0.11459,2.42004 0.46803,4.86256 1.04104,7.2166 3.3598,4.37833 7.45344,8.37619 12.97099,9.99898 1.24794,0.36704 2.53526,0.57406 3.83211,0.67558 6.33733,0.49607 12.50739,-2.23114 16.36951,-7.27908 3.73687,-4.88424 4.45371,-11.41725 2.4981,-16.19244 -1.54495,-3.77247 -3.10777,-5.19199 -5.2091,-6.88467 -2.19319,-1.64443 -4.79239,-2.87757 -7.14664,-3.81332 -5.74468,-2.28336 -8.39205,-2.79053 -11.35572,-4.53381 -2.22163,-1.30679 -4.38989,-2.87298 -6.70718,-5.37535 z m 89.87307,2.93468 c -1.61381,-0.0241 -3.17608,0.58635 -4.33407,1.71042 l -3.50399,3.40134 c -5.60412,5.43995 2.89613,14.18143 8.50019,8.74153 l 3.50399,-3.40133 c 2.40986,-2.33927 2.45343,-6.2018 0.11523,-8.61267 -1.12366,-1.15857 -2.66739,-1.8152 -4.28135,-1.83929 z m -84.41983,5.58232 c 1.23682,0.65904 2.4561,1.2648 3.7286,1.72604 0.52136,0.18898 1.04429,0.37359 1.56645,0.56039 0.8209,0.29367 1.6002,0.56979 2.38286,0.85326 -2.15488,4.78903 -3.54744,9.88418 -4.2501,15.09511 -0.84287,6.2508 -0.41968,10.86351 0.0332,13.46278 -3.1794,-0.87817 -5.86514,-2.74915 -8.21113,-5.0688 -0.12495,-4.27393 0.26126,-8.59657 0.91213,-12.77353 0.74283,-4.76711 1.8006,-9.22329 3.83798,-13.85525 z m 10.38109,4.1472 c 2.19654,0.85358 4.1963,1.73759 5.89467,2.77456 -1.22707,3.33702 -2.00094,6.83611 -2.35162,10.37972 -0.44258,4.47221 -0.37531,9.00404 0.25586,13.44913 -2.35976,1.11931 -4.99889,1.6221 -7.68572,1.44878 -0.43066,-1.96521 -1.15264,-6.72046 -0.22265,-13.56237 0.6797,-5.00062 2.03354,-9.89488 4.10946,-14.48982 z m 8.30878,4.53771 c 1.3833,1.23661 2.44931,2.71007 3.1153,4.526 1.61419,4.40127 0.84688,9.3128 -2.02348,13.01955 -0.863,1.11447 -1.87095,2.11005 -2.97077,2.93273 -0.45535,-3.83641 -0.47669,-7.73825 -0.0879,-11.58835 0.30586,-3.02897 0.95943,-6.02335 1.96684,-8.88993 z m 77.11304,0.0547 c -1.28275,-0.0774 -2.56205,0.24383 -3.64266,0.93917 l -4.10557,2.6418 c -6.52447,4.19829 0.0505,14.45862 6.57632,10.26257 l 4.10556,-2.63984 c 2.82978,-1.81953 3.65785,-5.58432 1.83793,-8.41352 -1.05354,-1.63781 -2.82744,-2.67284 -4.77158,-2.79018 z m -35.14922,7.3689 c -11.25302,0.26879 -20.29596,9.59986 -20.06099,20.98789 0.24255,11.75539 10.27359,20.92959 22.00439,20.09753 9.13944,-0.64826 16.74974,-7.26679 18.6801,-16.22173 0.40621,-1.88445 0.54991,-3.81742 0.41602,-5.74048 -0.73469,-10.55312 -9.36726,-18.82103 -19.9438,-19.12125 -0.36735,-0.0104 -0.73272,-0.0106 -1.09572,-0.002 z m 0.45704,2.8429 c 11.30527,-0.0465 19.75728,10.36877 17.38124,21.4194 -3.06764,14.26721 -21.11519,18.9004 -30.68036,7.87851 -9.56517,-11.02188 -2.43091,-28.23039 12.12917,-29.25495 0.38939,-0.0274 0.7796,-0.0414 1.16995,-0.043 z m 0.0508,7.78089 c -5.47952,0 -9.92155,4.44051 -9.92209,9.91892 -5.4e-4,5.47917 4.44181,9.92087 9.92209,9.92087 5.48028,0 9.92264,-4.44169 9.9221,-9.92087 -5.4e-4,-5.47841 -4.44258,-9.91892 -9.9221,-9.91892 z"
       style="fill:#2f2b42" />
  </g>
  <g
     id="g2442"
     inkscape:label="gModdingLogo"
     style="display:inline"
     transform="translate(-175.81261,-234.28295)" />
  <g
     inkscape:groupmode="layer"
     id="layer1"
     inkscape:label="Layer"
     transform="translate(-175.81261,-234.28295)">
    <g
       id="g13706"
       transform="translate(-368.27095,-477.7852)">
      <path
         id="path13143"
         style="color:#000000;fill:#ffffff;stroke-width:15;stroke-linecap:round;stroke-linejoin:round;-inkscape-stroke:none"
         d="m 795.73671,712.07337 c -1.23614,0.0379 -2.39353,0.27135 -3.4375,0.62109 -4.62919,1.54933 -7.72592,4.83023 -8.72265,9.77735 -0.70502,3.46642 0.18873,7.24592 2.07422,9.87109 0.11641,0.16208 0.28272,0.24208 0.40429,0.39649 -2.75662,-1.05341 -5.62682,-1.92864 -8.64453,-2.53516 -3.59694,-0.72294 -7.16491,-1.09235 -10.66797,-1.11133 -24.50848,-0.13269 -44.87334,17.66729 -50.19921,44.13672 a 7.50075,7.50075 0 0 0 0,0.002 c -1.23376,6.1476 -1.45398,12.14225 -0.91407,17.89649 l -26.27734,-45.15039 c -5.09296,-8.82106 -12.65395,-15.03604 -21.66797,-15.27344 -3.00064,-0.0791 -5.97621,0.42832 -8.91406,1.33398 -7.42548,2.26816 -13.69484,6.64887 -16.76367,13.27344 a 7.50075,7.50075 0 0 0 -0.11524,0.25977 c -0.15503,0.37088 -0.25045,0.77278 -0.39258,1.15039 -3.06621,2.24288 -5.63772,5.06754 -7.25586,8.56054 a 7.50075,7.50075 0 0 0 -0.11523,0.25977 c -1.94804,4.66042 -2.59651,9.53079 -2.35938,18.42187 l 0.12891,10.19922 -9.39844,-14.81836 c -4.25415,-6.88702 -7.81034,-11.09267 -12.32031,-14.04882 a 7.50075,7.50075 0 0 0 -0.0254,-0.0156 c -6.50133,-4.22374 -14.23374,-4.00838 -21.52734,-1.76758 -6.96382,2.12096 -12.65778,7.13464 -15.46289,13.6543 -3.35599,2.33534 -6.14087,5.52041 -7.77539,9.30273 -2.02653,4.68945 -2.50336,9.9033 -2.10547,15.62891 0,0 0,0.002 0,0.002 l 5.29492,81.30274 v 1.04883 a 7.50075,7.50075 0 0 0 0.10547,1.25781 l 0.16992,0.99804 0.0449,0.88282 c 5e-5,10e-4 -4e-5,0.003 0,0.004 0.11133,3.14526 0.61204,6.25185 1.31836,9.31446 -0.60126,-0.76368 -1.27983,-1.46224 -1.86328,-2.24024 l 0.0605,0.082 c -2.36446,-3.24361 -6.51032,-5.26249 -10.18555,-5.1914 a 7.50075,7.50075 0 0 0 -0.004,-0.002 c -0.002,4e-5 -0.004,-4e-5 -0.006,0 -10e-4,3e-5 -0.003,-2e-5 -0.004,0 -0.52245,0.0107 -1.04018,0.0549 -1.54297,0.12891 -4.42514,0.65073 -7.82454,3.22542 -9.83985,6.99414 -2.01561,3.76928 -1.97024,9.48028 1,13.5625 a 7.50075,7.50075 0 0 0 0.0879,0.11719 c 1.56247,2.06183 3.3228,3.95559 4.98632,5.93359 -4.15896,1.3728 -6.90731,4.5346 -8.17773,8.26758 -1.44849,4.25622 -0.52217,10.20101 3.51953,13.93164 a 7.50075,7.50075 0 0 0 0.006,0.004 c 9.71699,8.9528 21.17628,15.80662 33.66211,20.13086 l -0.006,-0.004 c 3.46926,1.20493 7.42841,0.8098 10.3418,-0.76172 2.91339,-1.57151 4.8832,-4.00011 6.01172,-6.72851 1.12851,-2.72841 1.48765,-5.95675 0.32226,-9.23047 -1.16539,-3.27373 -4.18404,-6.20154 -7.65234,-7.40625 a 7.50075,7.50075 0 0 0 -0.0137,-0.006 c -1.85258,-0.63954 -3.64605,-1.41453 -5.43555,-2.19727 0.45115,-0.45561 1.01918,-0.82597 1.39453,-1.32422 3.48463,-4.62555 3.86786,-12.60884 -1.27734,-17.58007 1.06862,0.23911 2.1565,0.40145 3.26367,0.44335 2.61865,0.0991 5.26654,-0.29429 7.89062,-1.05859 6.30998,-1.53601 11.42693,-6.19839 13.50586,-12.35742 a 7.50075,7.50075 0 0 0 0.0449,-0.14844 c 3.54616,-2.28697 6.3275,-5.69282 7.72071,-9.82031 a 7.50075,7.50075 0 0 0 0.12695,-0.41602 c 0.53149,-1.93855 0.84961,-4.30397 0.84961,-7.11328 0,-2.72706 -0.21382,-6.31599 -0.58203,-11.85156 v -1.86523 a 7.50075,7.50075 0 0 0 -0.0293,-0.65821 l -0.1582,-1.80273 5.71094,9.15039 a 7.50075,7.50075 0 0 0 0.0723,0.11328 l 3.50391,5.39648 -0.13672,-0.21875 c 1.81917,3.02591 3.88552,5.89545 6.17773,8.58204 a 7.50075,7.50075 0 0 0 0.44141,0.47461 c 5.41966,5.34114 13.96613,7.23874 21.52344,4.93359 6.48684,-1.97835 12.16796,-6.70888 14.17578,-12.92578 3.81157,-2.52325 6.86436,-6.27769 8.05078,-10.60742 0.88157,-2.91483 1.1708,-5.8148 1.45508,-9.39454 0.29039,-3.65678 0.4375,-7.73722 0.4375,-11.62109 a 7.50075,7.50075 0 0 0 -0.004,-0.26367 l -0.14649,-4.18945 5.48047,9.68945 a 7.50075,7.50075 0 0 0 0.002,0.004 c 3.242,5.72299 5.29362,9.24563 7.25391,12.01953 1.95252,2.7629 4.09149,4.86262 6.1875,6.41601 4.73326,3.53719 11.16581,4.04504 16.82617,2.3086 6.67234,-2.03348 12.15119,-6.89799 14.35547,-13.05469 3.04089,-2.02022 5.55027,-4.73225 7.0918,-8.01563 1.4302,-3.04627 1.89138,-6.45129 1.60546,-9.84179 5.59667,3.88039 12.01935,6.81765 19.26368,8.27539 a 7.50075,7.50075 0 0 0 0.002,0 c 14.59007,2.93376 28.61333,0.0927 39.52343,-7.58985 0.56575,-0.39838 1.08476,-0.86017 1.63282,-1.2832 0.0328,7.67743 1.46773,14.93036 4.14648,21.49609 -1.48718,-0.61574 -3.03056,-0.97929 -4.50976,-1.00195 -4.16984,-0.0639 -7.65853,1.73228 -10.18555,4.67578 -0.13826,-0.33007 -0.35937,-0.61699 -0.48438,-0.95312 a 7.50075,7.50075 0 0 0 -0.006,-0.0176 c -1.12414,-2.99782 -3.4066,-5.56311 -6.05273,-6.94336 a 7.50075,7.50075 0 0 0 -0.002,0 c -2.06274,-1.07551 -4.25397,-1.49595 -6.31641,-1.44922 -3.68833,0.0836 -7.19565,1.50252 -9.82226,4.54297 -2.62661,3.04045 -3.65156,8.18547 -2.10742,12.38281 a 7.50075,7.50075 0 0 0 0.0723,0.0781 c 2.81222,7.61185 7.301,14.49433 13.14648,20.125 a 7.50075,7.50075 0 0 0 0.0176,0.0156 c 2.65282,2.53932 6.56107,3.87415 9.96484,3.5 3.40378,-0.37414 6.15609,-2.03899 8.15235,-4.2207 0.2973,-0.32492 0.46435,-0.76325 0.73242,-1.11719 5.38147,5.9536 11.50674,11.2158 18.38672,15.4375 3.11503,1.92725 7.34047,2.42859 10.6289,1.20508 3.29285,-1.22515 5.51497,-3.61992 6.84961,-6.24414 1.33465,-2.62422 1.89461,-5.66684 1.24414,-8.87305 -0.30625,-1.50956 -0.97181,-3.02699 -1.88867,-4.42187 1.27637,0.4095 2.56046,0.80624 3.90039,1.10742 6.99924,1.57707 13.93858,0.77045 20.98438,-2.07227 0.54421,0.88456 0.96336,1.83295 1.66992,2.64258 2.69763,3.09116 6.55182,4.9068 10.19141,5.72852 a 7.50075,7.50075 0 0 0 0.0723,0.0156 c 5.73698,1.23648 11.78879,0.41348 16.48438,-2.82812 4.24898,-2.9333 6.98359,-7.50284 8.45312,-12.65625 2.91333,-3.10598 4.88968,-7.07974 5.88672,-11.5 a 7.50075,7.50075 0 0 0 0.002,-0.006 l 0.89649,-3.99414 c 7.93225,23.39802 28.18295,38.77697 51.49219,35.65625 7.11245,-0.9484 13.33905,-4.11258 18.96093,-9.22266 0.81695,0.64073 1.53924,1.38614 2.48243,1.90039 3.60207,1.96397 7.84793,2.3295 11.54687,1.83789 a 7.50075,7.50075 0 0 0 0.0723,-0.0117 c 3.06916,-0.43847 5.97054,-1.49051 8.55468,-3.02539 -0.30204,4.45797 0.48859,8.81423 2.66797,12.56836 2.82676,4.86928 7.89764,8.24969 13.57814,9.45313 5.2784,1.11821 10.751,0.13772 15.1543,-2.58594 8.2383,-1.58647 14.7015,-8.73945 16.5508,-17.48438 l 1.9043,-8.93945 c 1.8042,3.45676 3.6034,6.85531 6.0137,11.16016 1.5604,2.78689 3.3906,6.03142 5.5781,9.08984 2.1875,3.05843 4.554,6.11356 8.707,8.15039 5.796,2.84256 12.5681,2.09759 17.6817,-0.59375 4.2528,-2.23825 6.231,-5.64652 7.4902,-8.38867 0.6966,1.90495 1.5641,4.05394 1.9571,5.50977 1.6757,6.20802 3.191,12.08231 6.246,17.38085 1.9919,3.45457 5.2189,6.56209 9.1426,8.57422 0.332,3.77479 1.2893,7.76366 2.9961,12.00782 2.7066,6.73035 7.4003,13.85839 15.2617,18.05273 8.9001,4.74851 17.3245,3.64925 23.1895,1.89844 -3.8569,1.81055 -6.4151,5.54269 -7.1719,9.27344 -0.1832,0.90304 -0.1107,1.89678 -0.064,2.87695 -0.83,-0.54905 -1.6704,-1.07924 -2.4648,-1.69141 a 7.50075,7.50075 0 0 0 -0.045,-0.0332 c -2.1953,-1.66604 -5.0057,-2.65889 -7.709,-2.63281 -5.8409,0.0562 -9.9908,3.86229 -11.793,8.40429 -1.8022,4.54201 -0.598,11.30714 4.1426,14.92774 a 7.50075,7.50075 0 0 0 0,0.002 c 15.6017,11.90656 35.6552,16.36866 54.832,12.20316 4.9338,-1.0717 8.717,-5.2269 9.793,-9.32816 0.5092,-1.9409 0.592,-3.90109 0.2734,-5.80469 1.0203,-0.133 2.0748,-0.16872 3.0821,-0.33007 10e-4,-2.3e-4 0,-0.002 0,-0.002 4.9948,-0.79478 9.1128,-4.91622 10.2539,-9.07422 1.1414,-4.15919 0.3876,-8.3629 -2.3594,-11.85742 -0.4936,-0.62794 -1.1418,-1.17187 -1.8008,-1.70117 7.3045,-4.44869 11.1481,-10.76549 13.2383,-15.76367 5.5034,0.15669 11.6034,-1.52663 17.9512,-5.49414 2.9748,-1.85935 5.389,-4.25172 7.3847,-6.92774 -1.1895,2.36143 -1.7208,5.08351 -1.2929,7.52149 0.6057,3.45162 2.5488,6.0788 4.8886,7.875 2.3398,1.79619 5.2414,2.90651 8.5254,2.83789 3.2101,-0.0671 6.7262,-1.57778 9.1719,-4.19727 a 7.50075,7.50075 0 0 0 0.1934,-0.0957 c 8.6198,-9.6139 10.2008,-22.16259 11.0625,-32.10156 a 7.50075,7.50075 0 0 0 0,-0.0391 c 0.3318,-4.06676 -1.4372,-8.16343 -4.0957,-10.58593 -2.6585,-2.4225 -5.889,-3.52559 -9.2168,-3.50977 -0.4714,0.002 -0.9172,0.0297 -1.3399,0.0742 -4.2227,0.44515 -8.6841,4.09682 -10.2578,8.84961 -0.026,-0.52618 -0.067,-1.05177 -0.125,-1.57813 0.8601,-4.35624 1.1403,-8.75087 -0.457,-13.17382 -0.2649,-0.73384 -0.5666,-1.44376 -0.9258,-2.14063 -1.3615,-2.641 -4.4943,-5.62695 -8.1348,-6.11523 -3.6405,-0.48828 -6.0643,0.80687 -7.8496,1.81054 -3.5706,2.00736 -6.0351,4.24207 -8.3828,5.52344 -3.801,2.07466 -13.9611,6.20055 -28.3672,7.11524 15.8128,-5.20272 26.7332,-12.87371 33.1934,-24.86524 6.2959,-11.59787 6.8113,-25.79079 2.5117,-40.0957 v 0 l -19.17,-63.84961 v 0.006 c -1.7992,-6.00731 -5.5424,-11.09217 -10.6953,-13.90625 -3.707,-6.08382 -10.0275,-10.41015 -17.1036,-10.30078 -2.1273,0.0329 -4.2537,0.39406 -6.3378,1.02539 -0.2765,0.0834 -0.5125,0.2484 -0.7852,0.34179 -0.3833,-0.33007 -0.7099,-0.70777 -1.1367,-0.99804 -3.0037,-2.04286 -6.677,-2.77127 -10.1875,-2.10156 -3.5131,0.67017 -6.6565,2.69968 -8.6973,5.70312 l -1.9082,2.80859 c -9.1884,-1.48963 -16.5607,1.30577 -19.3281,1.78516 -3.1477,0.54525 -7.0467,1.38207 -10.3867,1.60742 -3.3401,0.22535 -5.3883,-0.7208 -4.9356,-0.30859 -1.2308,-1.12077 -2.7393,-2.16287 -4.2519,-3.19727 0.7569,-1.85798 1.3372,-3.79243 1.4922,-5.80664 0.3875,-5.03702 -0.8575,-10.05788 -3.8594,-14.07812 -3.0019,-4.02024 -7.9066,-6.83127 -13.3418,-7.26563 -0.9483,-0.0757 -1.9043,-0.0835 -2.8594,-0.0215 -0.9558,0.0622 -1.897,0.19317 -2.8164,0.38672 -8.6305,1.81641 -15.0789,9.17845 -15.7598,17.96289 -0.1922,2.48003 0.2474,4.89921 1.0196,7.16601 -3.1979,3.01371 -6.0238,7.04879 -8.1133,12.26563 -0.058,-0.0877 -0.087,-0.19051 -0.1465,-0.27735 -3.5112,-5.10215 -9.2668,-8.2458 -15.6289,-9.33593 -1.6002,-0.27419 -3.1857,-0.416 -4.7461,-0.41993 -4.4538,-0.0109 -8.7949,1.29081 -12.4063,3.71875 -8.4851,2.21978 -14.8297,9.89416 -16.4238,19.14649 -1.2092,7.01868 1.3545,13.55867 5.2031,17.72461 0.9771,1.05757 2.0152,1.99105 3.0957,2.8164 -0.4041,0.2183 -0.7681,0.49117 -1.1543,0.73829 -8.1053,1.65387 -14.4037,8.82355 -16.25,17.46289 a 7.50075,7.50075 0 0 0 0,0.006 l -2.0429,9.5957 -8.89847,-66.41211 c 2.31415,2.33142 4.734,4.55085 7.32227,6.58008 5.0404,4.56155 12.9379,4.44838 17.8359,-0.27149 a 7.50075,7.50075 0 0 0 0.1621,-0.16211 c 2.5608,-2.62324 3.5674,-5.66195 3.6426,-8.9082 0.021,-0.90088 -0.086,-1.86023 -0.2812,-2.83203 1.0548,0.53566 2.1395,0.97157 3.2422,1.16211 3.3497,0.57882 6.4436,-0.22822 8.9765,-1.75195 1.8083,-1.08776 3.2568,-2.74996 4.4219,-4.68946 0.5448,0.70979 1.1543,1.34807 1.8164,1.88867 2.6235,2.1422 5.7025,2.97199 8.6602,2.9004 2.9576,-0.0716 6.0011,-1.051 8.5195,-3.33008 2.5184,-2.27909 4.1418,-6.03358 4.0488,-9.70703 a 7.50075,7.50075 0 0 0 0,-0.0273 c -0.1281,-4.43887 0.2951,-8.87634 1.2598,-13.21094 a 7.50075,7.50075 0 0 0 0,-0.002 c 0.7966,-3.58261 -0.069,-7.52729 -2.041,-10.23828 -1.9718,-2.71099 -4.6948,-4.3114 -7.5586,-5.02344 -1.0639,-0.26449 -2.1727,-0.40749 -3.3203,-0.40429 -4.9314,0.0137 -10.8495,3.98251 -12.168,9.79882 a 7.50075,7.50075 0 0 0 0,0.0176 c -0.7117,3.17437 -1.2177,6.38828 -1.541,9.61914 -1.5499,-2.96354 -3.1748,-5.88988 -4.502,-8.96094 a 7.50075,7.50075 0 0 0 -0.035,-0.082 c -1.7709,-3.96869 -5.4157,-6.0435 -8.5918,-6.71289 a 7.50075,7.50075 0 0 0 0,-0.002 c -0.8026,-0.16903 -1.5924,-0.25934 -2.375,-0.28516 -2.3653,-0.078 -4.7757,0.3728 -7.1367,1.80079 -3.037,1.82551 -5.2339,5.07911 -5.8731,8.24023 -0.6327,3.12945 -0.065,6.02035 1.0274,8.51172 v 0 c 0,0.009 0.01,0.0168 0.012,0.0254 0.011,0.0249 0.012,0.0553 0.023,0.0801 a 7.50075,7.50075 0 0 0 0.023,0.0215 c 1.414,3.27815 2.9835,6.48161 4.6289,9.64844 -2.0209,-1.86576 -3.9589,-3.81724 -5.7285,-5.92774 a 7.50075,7.50075 0 0 0 -0.01,-0.01 c -1.6837,-2.00126 -3.947,-3.24365 -6.0938,-3.79297 -1.1848,-0.30308 -2.3424,-0.4156 -3.45309,-0.39453 -3.35483,0.0636 -6.53026,1.16396 -9.16601,3.85937 a 7.50075,7.50075 0 0 0 -0.11133,0.11914 c -0.29776,0.31806 -0.51991,0.67891 -0.7793,1.01954 -0.89654,-1.4134 -1.89674,-2.75264 -3.11914,-3.90821 -3.83096,-3.62152 -9.20453,-5.47761 -14.58398,-5.24804 a 7.50075,7.50075 0 0 0 -0.004,0.002 c -0.70495,0.0305 -1.42257,0.0925 -2.15039,0.18945 a 7.50075,7.50075 0 0 0 -0.002,0 c -4.94085,0.65881 -9.59999,2.86667 -12.85156,6.5332 -2.60838,2.94128 -4.13623,6.66264 -4.73047,10.60352 -3.91879,4.71089 -5.56524,11.20814 -4.67969,17.80859 l 0.80664,6.04102 c -2.28773,-0.1358 -4.60041,-0.12623 -6.94922,0.18945 -10.49371,1.40667 -19.51582,6.27447 -26.43359,13.30078 l 5.58593,-24.86132 a 7.50075,7.50075 0 0 0 0,-0.002 7.50075,7.50075 0 0 0 0,-0.002 7.50075,7.50075 0 0 0 0,-0.002 c 1.21461,-5.42479 0.89433,-10.91558 -1.44335,-15.64063 -2.33768,-4.72504 -6.73486,-8.32637 -11.85938,-9.97656 a 7.50075,7.50075 0 0 0 -0.006,-0.002 c -0.66643,-0.21416 -1.3606,-0.40571 -2.08203,-0.56836 a 7.50075,7.50075 0 0 0 -0.002,0 c -1.39996,-0.31544 -2.81428,-0.51108 -4.23243,-0.56836 -4.95548,-0.2002 -9.97198,1.46456 -13.68554,4.73242 -3.30467,2.90804 -5.47858,6.88008 -6.74219,11.33203 -2.89188,3.10398 -4.87631,7.07747 -5.87695,11.53516 l -1.19922,5.32617 c -2.84588,-1.57897 -5.87464,-2.84602 -9.18164,-3.58789 h -0.004 c -16.85501,-3.78548 -33.06389,2.29772 -44.35742,14.49219 -0.31507,-3.3007 -0.83202,-6.53351 -1.70313,-9.62305 -1.08403,-8.79884 -4.36379,-16.81291 -9.31836,-23.59766 2.11364,0.26935 4.19849,0.2114 6.12891,-0.43945 2.7878,-0.93992 5.48505,-2.79091 7.17383,-5.88086 1.68192,-3.07742 1.78073,-7.32835 0.32031,-10.67969 -4.189,-9.80031 -12.50422,-17.25505 -22.70117,-20.35742 -1.25939,-0.39317 -2.54608,-0.55614 -3.75781,-0.51953 z m 194.23633,49.92578 c 0.0998,0.11915 0.21785,0.2213 0.31836,0.33984 0.0281,0.0292 0.0458,0.0648 0.0742,0.0937 z m 83.57426,6.93164 c 0.059,0.0246 0.1739,0.0723 0.1738,0.0723 0,-2e-5 0.1575,0.11195 0.2422,0.17187 0,0.005 -0.01,0.0101 -0.012,0.0156 -0.1518,-0.0975 -0.3847,-0.2472 -0.4043,-0.25977 z m 89.7246,3.90234 c -0.1061,0.46274 -0.219,0.91216 -0.3301,1.36524 l -0.4668,-0.20313 c 0.02,-0.0284 0.043,-0.0509 0.062,-0.0801 z m -95.8535,9.77149 c 0.2015,0.084 0.5428,0.22598 0.5722,0.23633 0.039,0.0137 -0.5296,-0.20914 -0.5293,-0.20899 0,10e-6 -0.041,-0.0262 -0.043,-0.0273 z m -5.9239,17.94727 c 0.064,0.34538 0.1317,0.67944 0.1465,0.75781 a 7.50075,7.50075 0 0 0 0,0.0137 c 0.1508,0.79123 0.3182,1.57716 0.5059,2.35742 -0.03,-0.12431 0.016,0.18385 0.1992,0.89649 5e-4,0.002 10e-4,0.004 0,0.006 0,0.008 -10e-5,0.002 0,0.01 0.324,1.25886 0.7018,2.46366 1.1035,3.61719 -0.029,-0.0837 0.01,0.0521 0.1387,0.41406 a 7.50075,7.50075 0 0 0 0,0.004 c 0.1229,0.34213 0.2033,0.54151 0.2265,0.60351 v -0.004 c 0.1538,0.41054 0.3259,0.86383 0.5274,1.35351 0.1307,0.31775 0.2331,0.54917 0.2969,0.69727 a 7.50075,7.50075 0 0 0 0,0.004 c 0.1554,0.36032 0.323,0.74259 0.5097,1.14454 v -0.004 c -0.086,-0.18532 -0.044,-0.0714 0.1465,0.33008 a 7.50075,7.50075 0 0 0 0.064,0.082 c 0.9749,2.04456 2.1434,3.99106 3.4102,5.89648 -5.3842,0.26674 -10.5944,1.80898 -15.3262,4.48047 -0.063,-3.60422 -0.8045,-7.09502 -2.5957,-10.17969 -0.9196,-1.58356 -2.1435,-2.92873 -3.4824,-4.1582 1.4099,-0.5229 2.7343,-1.24106 4.0156,-2.08789 3.8305,-0.97238 7.3118,-3.19216 10.1035,-6.23437 z m 4.3184,12.85546 a 7.50075,7.50075 0 0 0 1.4687,1.89454 c 0.084,0.0702 0.07,0.0634 -0.088,-0.0742 z m 50.6797,41.66797 c 2.9435,1.32611 5.8165,2.32939 8.6679,3.2168 0.1672,0.1675 0.349,0.31746 0.6094,0.55273 2.533,3.14832 5.3953,5.90901 8.4922,8.3086 -3.3078,2.27732 -5.7704,5.49298 -7.1504,9.17968 -0.3737,-0.74649 -0.9112,-1.59004 -1.2519,-2.30273 a 7.50075,7.50075 0 0 0 0,-0.002 c -3.5103,-7.3369 -6.6388,-13.51877 -9.3672,-18.95313 z m -446.45706,16.41992 -0.0898,0.30665 c 0.025,-0.0803 0.0255,-0.13448 0.0488,-0.2129 0.009,-0.0333 0.0322,-0.0604 0.041,-0.0937 z m 456.63676,17.27735 c 0.01,0.0255 0.025,0.0468 0.033,0.0723 0.01,0.0316 0.01,0.0641 0.019,0.0957 z m 111.914,42.91015 c -0.7207,2.13326 -1.5736,4.04516 -2.7656,5.35938 a 7.50075,7.50075 0 0 0 -0.025,0.0273 c -0.1,0.11124 -0.1659,0.25362 -0.2617,0.36914 1.1591,-1.85583 2.2069,-3.77112 3.0527,-5.75586 z m -44.4121,37.13868 -0.096,0.0527 c 0.014,-0.007 0.023,-0.018 0.037,-0.0254 0.019,-0.0105 0.04,-0.0168 0.059,-0.0273 z" />
      <g
         id="g13474"
         transform="translate(733.68984,172.19251)">
        <g
           id="g13422">
          <g
             id="g13383">
            <g
               id="g13349">
              <g
                 id="g12400">
                <path
                   d="m -144.5423,724.14602 c 1.78937,0.0677 3.72042,-0.19499 5.75208,-0.81226 3.86475,-0.9079 6.98661,-3.74672 8.25604,-7.50753 0.77534,-2.82797 0.77534,-5.23977 0,-16.83874 v -2.00916 l -2.77154,-31.49648 c -1.27787,-13.85273 -3.35945,-30.9771 -3.35945,-30.9771 l 15.69371,27.04468 17.58828,28.17911 3.503992,5.39682 c 1.60664,2.6724 3.43124,5.2076 5.4552,7.57978 4.02026,3.96202 8.14269,4.90939 14.072572,3.10064 5.412991,-1.65085 8.327551,-4.20677 9.447481,-8.42718 1.01942,-3.27298 1.59378,-11.59822 1.59378,-18.97677 l -1.16408,-33.13076 -2.03911,-30.20389 c 0,0 8.01301,15.30296 14.53157,26.98806 l 15.79332,27.91941 c 6.43241,11.35493 8.04085,13.63871 11.40064,16.12215 2.62752,1.96667 6.08728,2.397 10.15061,1.1481 8.11231,-2.46908 11.74535,-8.75648 9.47677,-16.19245 -0.9907,-3.27297 -2.36934,-6.00078 -6.33217,-12.91997 l -41.10637,-70.6274 c -5.90117,-10.22087 -12.57927,-13.39329 -21.883301,-10.52226 -5.929882,1.80876 -10.265162,5.16775 -12.160422,9.25897 -1.60811,3.84718 -2.01102,6.71828 -1.78129,15.33136 l 0.44532,34.8119 2.08208,28.58133 -0.86135,0.18549 -14.070622,-24.90664 -18.50823,-29.18272 c -4.03461,-6.5316 -6.59071,-9.44714 -10.051,-11.71526 -3.69002,-2.39731 -9.50321,-2.65409 -15.24644,-0.8884 -9.30403,2.82796 -13.10969,9.15808 -12.29128,20.92931 l 5.31262,81.57921 v 1.29259 l 0.24414,1.43512 0.0723,1.43707 c 0.12012,3.40165 0.65533,6.77589 1.59375,10.04779 1.70143,5.57698 5.79229,8.76286 11.1604,8.96608 z"
                   style="display:inline;fill:#91cee5;fill-opacity:1"
                   id="path8279" />
                <path
                   d="m 34.599876,572.49251 c -21.022742,-0.11382 -38.0421821,14.45113 -42.8036828,38.11562 -5.3268502,26.54268 8.5867407,48.79365 33.5554228,53.81796 25.62915,5.1535 46.87988,-9.89102 52.27851,-36.73516 5.41299,-26.87287 -8.6586,-49.18084 -33.79958,-54.23386 -3.14262,-0.63163 -6.22743,-0.94829 -9.23067,-0.96456 z m 0.66017,25.49048 c 1.16685,-0.0356 2.36104,0.0645 3.5743,0.3085 9.70605,1.95231 14.90414,12.0146 12.4202,24.31697 -2.39781,11.95784 -11.05613,19.06439 -20.76218,17.1121 -9.70606,-1.9523 -14.759502,-11.81393 -12.31863,-23.94405 2.12319,-10.65153 8.91839,-17.54467 17.08631,-17.79352 z"
                   style="display:inline;fill:#91cee5;fill-opacity:1"
                   id="path8281" />
                <path
                   d="m 165.58153,585.31625 c -0.46264,-0.14867 -0.94128,-0.28088 -1.43672,-0.39258 -7.92726,-1.7862 -14.15081,2.44275 -16.17647,11.46677 l -3.34256,14.83835 c 0,0 -3.42065,15.6596 -3.6429,15.40912 -5.12534,-7.63156 -9.922,-11.18663 -17.75339,-12.94265 -22.77411,-5.11685 -43.601083,10.13694 -49.459493,36.17916 -5.99237,26.70737 6.169579,49.96089 28.775013,55.03974 7.75861,1.74817 14.2451,0.31192 23.05532,-4.96784 1.96877,7.3309 4.36917,10.04122 9.79385,11.26596 8.35892,1.80158 14.51171,-2.44674 16.53383,-11.41167 L 173.8653,602.1577 c 1.84729,-8.25057 -1.34554,-14.60725 -8.28376,-16.84148 z m -42.47299,54.06588 c 8.33421,2.89183 12.36771,12.3613 9.83928,23.85407 -3.03927,13.49063 -11.0666,20.20636 -21.2456,17.92259 l 0.009,-0.028 c -9.66871,-2.18346 -14.420387,-12.4818 -11.66429,-24.73722 2.75609,-12.25542 11.84741,-19.62794 21.33806,-17.5005 0.59318,0.13291 1.16816,0.29615 1.72377,0.48895 z"
                   style="display:inline;fill:#91cee5;fill-opacity:1"
                   id="path8283" />
                <path
                   d="m 233.68172,581.74609 c -0.48549,0.021 -0.98028,0.063 -1.48371,0.13008 -8.0547,1.07402 -12.42528,7.19895 -11.19547,16.36539 l 2.01118,15.07663 c 0,0 2.22277,15.87398 1.92744,15.71612 -7.45401,-5.38028 -13.18593,-7.05111 -21.14025,-5.98203 -23.13518,3.09932 -37.37909,24.62958 -33.84185,51.08721 3.64229,27.12796 23.1142,44.72011 46.078,41.64364 7.88334,-1.05119 13.4691,-4.64795 19.90133,-12.65559 4.38909,6.19307 7.5805,7.90265 13.09325,7.16997 8.46491,-1.20931 12.76239,-7.32785 11.54976,-16.43766 l -13.28909,-99.19064 c -1.12885,-8.37914 -6.32815,-13.23393 -13.61059,-12.92315 z m -21.08548,65.44064 c 8.81987,-0.17815 15.88724,7.30465 17.50169,18.961 1.82824,13.70735 -3.37168,22.7903 -13.71094,24.17859 l -0.001,-0.0293 c -9.82585,1.30538 -17.85429,-6.70575 -19.51971,-19.15637 -1.66544,-12.45061 4.30463,-22.5186 13.94405,-23.81477 0.60246,-0.0811 1.19837,-0.12738 1.78636,-0.13925 z"
                   style="display:inline;fill:#91cee5;fill-opacity:1"
                   id="path8285" />
                <path
                   d="m 292.21378,641.11508 c -6.62136,-0.20446 -11.41005,4.09716 -13.08992,11.95784 l -12.60694,59.18592 c -1.86519,8.82936 1.97746,15.43481 9.9294,17.11944 7.95194,1.68462 14.15807,-2.77819 16.02221,-11.59324 l 12.60809,-59.20148 c 1.92303,-9.02659 -1.78098,-15.37575 -9.91692,-17.10284 -1.01699,-0.21588 -2.00001,-0.33644 -2.94592,-0.36564 z"
                   style="fill:#91cee5;fill-opacity:1"
                   id="path8287"
                   sodipodi:nodetypes="sccsccss" />
                <path
                   d="m 303.02731,600.35039 c -7.82615,-0.0197 -13.22867,4.9049 -14.74142,13.68524 -1.6413,9.5265 6.34056,15.3184 12.47623,16.35349 9.39649,1.58518 16.66701,-1.60772 18.47705,-11.04808 1.92637,-10.04708 -3.01014,-17.01424 -12.71368,-18.67693 -1.21294,-0.20783 -2.38017,-0.31091 -3.49818,-0.31372 z"
                   style="fill:#91cee5;fill-opacity:1;stroke-width:0.999999"
                   id="path8289"
                   sodipodi:nodetypes="ssssss" />
                <path
                   d="m 408.11844,610.16604 c -18.38483,8.84304 -26.6641,30.25336 -19.65193,53.57516 7.58122,25.23433 29.39022,38.80159 51.73689,32.08455 8.29746,-2.49122 13.15188,-6.73163 18.05366,-16.12793 l 0.89974,0.22106 c 0.9843,7.54549 0.70439,10.90476 -0.70337,14.83405 -1.99348,5.0299 -7.09937,8.96144 -14.20409,11.10683 -5.13808,1.46165 -10.50509,1.94405 -15.82118,1.42203 -9.38963,-0.49548 -10.33462,-0.58071 -12.54043,0.0844 l -0.29456,0.14897 c -6.18162,2.00892 -9.5664,8.64631 -7.56161,14.82795 1.41468,4.73789 4.92167,7.75945 10.64182,8.98469 8.93458,2.10907 19.25054,1.41061 30.77335,-2.05227 16.05591,-4.90289 25.05427,-11.25368 30.86156,-22.04096 5.15819,-9.49379 5.79199,-21.50969 1.92645,-34.37048 l -19.1788,-63.84952 c -2.64019,-8.81539 -8.97462,-12.65658 -16.9257,-10.24402 -5.75176,1.73461 -7.99934,4.60865 -9.1804,11.81757 -9.27887,-4.41228 -14.85698,-5.16327 -22.80807,-2.75071 -2.11245,0.63403 -4.12144,1.4138 -6.02332,2.32862 z m 14.76607,21.49753 c 0.55151,-0.23944 1.12617,-0.44832 1.72038,-0.62754 9.50935,-2.86283 18.35842,3.34186 22.02829,15.52943 3.98937,13.26469 0.23161,22.88751 -9.92542,25.93312 -9.48371,2.84986 -18.41068,-3.51015 -22.08057,-15.69774 l -0.0251,-0.0506 c -3.37965,-11.27566 0.0102,-21.4949 8.28276,-25.08702 z"
                   style="fill:#91cee5;fill-opacity:1"
                   id="path8291" />
                <path
                   d="m 499.30183,739.24712 c -2.80746,-5.44566 -7.53718,0.77908 -14.10755,4.36524 -7.00838,3.8253 -26.97623,11.57963 -54.76598,6.79241 -27.78971,-4.78714 -39.58055,-24.4708 -45.50206,-36.8558 -4.63149,-9.6805 -10.20729,-20.75498 -12.41984,-25.13206 -2.75806,-6.48747 -7.0604,-12.2023 -12.53225,-16.64651 -14.78743,-12.6118 -33.59592,-12.574 -44.36255,0.0959 -4.92791,5.80449 -7.01843,12.11839 -6.10141,18.49423 0.9259,5.19151 5.10398,13.32728 11.55099,24.8419 3.07821,5.49783 6.92924,12.15271 11.04222,14.16987 3.59376,1.76251 7.29893,1.39313 10.88718,-0.49539 3.86378,-2.03352 4.42914,-4.67761 5.32069,-7.24702 1.77418,-5.1131 -4.63301,-13.68116 -9.77388,-22.66692 -3.23261,-5.76043 -3.75784,-8.976 -2.14627,-10.85954 1.61157,-1.88354 4.49595,-1.74935 6.92252,0.31105 1.91951,1.78641 3.49674,3.9083 4.6541,6.26128 0,0 11.87649,23.68728 15.20124,36.00417 3.32476,12.31687 6.13763,21.72591 15.64231,22.59444 -0.96392,6.53929 2.76571,22.60722 14.29564,28.75886 11.52994,6.15163 23.25221,-0.84567 23.25221,-0.84567 0,0 1.79353,5.05272 9.78979,9.43887 9.68865,4.92798 21.19145,4.72033 30.69413,-0.55413 10.65874,-5.71496 13.13837,-18.61565 13.13837,-18.61565 3.84742,2.0481 10.60744,1.93655 18.97458,-3.29313 8.36717,-5.22968 13.60301,-20.13107 10.88231,-27.66724 -0.17001,-0.47095 -0.34935,-0.88617 -0.53649,-1.24919 z"
                   style="fill:#91cee5;fill-opacity:1"
                   id="path8293"
                   sodipodi:nodetypes="ssscccccsssscsccscsccccsss" />
              </g>
              <g
                 id="g12410">
                <path
                   d="m -136.77786,714.17648 c 1.78937,0.0677 3.72042,-0.19499 5.75208,-0.81226 3.86475,-0.9079 6.98661,-3.74672 8.25604,-7.50753 0.77534,-2.82797 0.77534,-5.23977 0,-16.83874 v -2.00916 l -2.77154,-31.49648 c -1.27787,-13.85273 -3.35945,-30.9771 -3.35945,-30.9771 l 15.69371,27.04468 17.588282,28.17911 3.50399,5.39682 c 1.60664,2.6724 3.43124,5.2076 5.4552,7.57978 4.02026,3.96202 8.14269,4.90939 14.07257,3.10064 5.412991,-1.65085 8.327551,-4.20677 9.447481,-8.42718 1.01942,-3.27298 1.59378,-11.59822 1.59378,-18.97677 l -1.16408,-33.13076 -2.03911,-30.20389 c 0,0 8.01301,15.30296 14.53157,26.98806 l 15.79332,27.91941 c 6.43241,11.35493 8.04085,13.63871 11.40064,16.12215 2.62752,1.96667 6.08728,2.397 10.15061,1.1481 8.11231,-2.46908 11.74535,-8.75648 9.47677,-16.19245 -0.9907,-3.27297 -2.36934,-6.00078 -6.33217,-12.91997 l -41.10637,-70.6274 c -5.90117,-10.22087 -12.57927,-13.39329 -21.883301,-10.52226 -5.92988,1.80876 -10.26516,5.16775 -12.16042,9.25897 -1.60811,3.84718 -2.01102,6.71828 -1.78129,15.33136 l 0.44532,34.8119 2.08208,28.58133 -0.86135,0.18549 -14.07062,-24.90664 -18.508232,-29.18272 c -4.03461,-6.5316 -6.59071,-9.44714 -10.051,-11.71526 -3.69002,-2.39731 -9.50321,-2.65409 -15.24644,-0.8884 -9.30403,2.82796 -13.10969,9.15808 -12.29128,20.92931 l 5.31262,81.57921 v 1.29259 l 0.24414,1.43512 0.0723,1.43707 c 0.12012,3.40165 0.65533,6.77589 1.59375,10.04779 1.70143,5.57698 5.79229,8.76286 11.1604,8.96608 z"
                   style="display:inline;fill:#e6559f"
                   id="path3476" />
                <path
                   d="m 33.010831,564.39979 c -21.022743,-0.11382 -38.0421828,14.45113 -42.8036828,38.11562 -5.3268502,26.54268 8.58674,48.79365 33.5554228,53.81796 25.62915,5.1535 46.87988,-9.89102 52.27851,-36.73516 5.41299,-26.87287 -8.6586,-49.18084 -33.79958,-54.23386 -3.14262,-0.63163 -6.22743,-0.94829 -9.23067,-0.96456 z m 0.66017,25.49048 c 1.16685,-0.0356 2.36104,0.0645 3.5743,0.3085 9.70605,1.95231 14.90414,12.0146 12.4202,24.31697 -2.39781,11.95784 -11.05613,19.06439 -20.76218,17.1121 -9.70606,-1.9523 -14.759503,-11.81393 -12.31863,-23.94405 2.12319,-10.65153 8.91839,-17.54467 17.08631,-17.79352 z"
                   style="display:inline;fill:#e6559f;fill-opacity:1"
                   id="path3831" />
                <path
                   d="m 170.97668,575.42515 c -0.46264,-0.14867 -0.94128,-0.28088 -1.43672,-0.39258 -7.92726,-1.7862 -14.15081,2.44275 -16.17647,11.46677 l -3.34256,14.83835 c 0,0 -3.42065,15.6596 -3.6429,15.40912 -5.12534,-7.63156 -9.922,-11.18663 -17.75339,-12.94265 -22.77411,-5.11685 -43.601091,10.13694 -49.459501,36.17916 -5.99237,26.70737 6.169579,49.96089 28.775021,55.03974 7.75861,1.74817 14.2451,0.31192 23.05532,-4.96784 1.96877,7.3309 4.36917,10.04122 9.79385,11.26596 8.35892,1.80158 14.51171,-2.44674 16.53383,-11.41167 l 21.93729,-97.64291 c 1.84729,-8.25057 -1.34554,-14.60725 -8.28376,-16.84148 z m -42.47299,54.06588 c 8.33421,2.89183 12.36771,12.3613 9.83928,23.85407 -3.03927,13.49063 -11.0666,20.20636 -21.2456,17.92259 l 0.009,-0.028 c -9.66871,-2.18346 -14.42039,-12.4818 -11.66429,-24.73722 2.75609,-12.25542 11.84741,-19.62794 21.33806,-17.5005 0.59318,0.13291 1.16816,0.29615 1.72377,0.48895 z"
                   style="display:inline;fill:#e6559f;fill-opacity:1"
                   id="path9004" />
                <path
                   d="m 238.30613,571.59808 c -0.48549,0.021 -0.98028,0.063 -1.48371,0.13008 -8.0547,1.07402 -12.42528,7.19895 -11.19547,16.36539 l 2.01118,15.07663 c 0,0 2.22277,15.87398 1.92744,15.71612 -7.45401,-5.38028 -13.18593,-7.05111 -21.14025,-5.98203 -23.13518,3.09932 -37.37909,24.62958 -33.84185,51.08721 3.64229,27.12796 23.1142,44.72011 46.078,41.64364 7.88334,-1.05119 13.4691,-4.64795 19.90133,-12.65559 4.38909,6.19307 7.5805,7.90265 13.09325,7.16997 8.46491,-1.20931 12.76239,-7.32785 11.54976,-16.43766 L 251.91672,584.5212 c -1.12885,-8.37914 -6.32815,-13.23393 -13.61059,-12.92315 z m -21.08548,65.44064 c 8.81987,-0.17815 15.88724,7.30465 17.50169,18.961 1.82824,13.70735 -3.37168,22.7903 -13.71094,24.17859 l -0.001,-0.0293 c -9.82585,1.30538 -17.85429,-6.70575 -19.51971,-19.15637 -1.66544,-12.45061 4.30463,-22.5186 13.94405,-23.81477 0.60246,-0.0811 1.19837,-0.12738 1.78636,-0.13925 z"
                   style="display:inline;fill:#e6559f;fill-opacity:1"
                   id="path10809" />
                <path
                   d="m 299.00479,638.42629 c -6.62136,-0.20445 -11.41006,4.09716 -13.08993,11.95784 l -12.60693,59.18592 c -1.86519,8.82937 1.97746,15.43481 9.9294,17.11944 7.95193,1.68462 14.15807,-2.77819 16.0222,-11.59324 l 12.60809,-59.20148 c 1.92304,-9.02659 -1.78097,-15.37575 -9.91692,-17.10283 -1.01699,-0.21588 -2.00001,-0.33645 -2.94591,-0.36565 z"
                   style="fill:#e6559f;fill-opacity:1"
                   id="path10842"
                   sodipodi:nodetypes="sccsccss" />
                <path
                   d="m 309.70701,597.39591 c -7.82615,-0.0197 -13.22867,4.9049 -14.74142,13.68524 -1.6413,9.5265 6.34056,15.3184 12.47623,16.35349 9.39649,1.58518 16.66701,-1.60772 18.47705,-11.04808 1.92637,-10.04708 -3.01014,-17.01424 -12.71368,-18.67693 -1.21294,-0.20783 -2.38017,-0.31091 -3.49818,-0.31372 z"
                   style="fill:#e6559f;fill-opacity:1;stroke-width:0.999999"
                   id="path11805"
                   sodipodi:nodetypes="ssssss" />
                <path
                   d="m 400.2575,602.25573 c -18.38482,8.84305 -26.6641,30.25337 -19.65193,53.57516 7.58122,25.23433 29.39022,38.8016 51.73689,32.08455 8.29746,-2.49122 13.15189,-6.73163 18.05366,-16.12793 l 0.89975,0.22106 c 0.98429,7.5455 0.70438,10.90477 -0.70337,14.83405 -1.99349,5.0299 -7.09938,8.96145 -14.2041,11.10683 -5.13808,1.46166 -10.50509,1.94405 -15.82117,1.42204 -9.38964,-0.49548 -10.33463,-0.58072 -12.54044,0.0844 l -0.29456,0.14897 c -6.18162,2.00891 -9.5664,8.64631 -7.56161,14.82795 1.41469,4.73789 4.92168,7.75945 10.64182,8.98469 8.93458,2.10906 19.25054,1.4106 30.77335,-2.05227 16.05591,-4.9029 25.05427,-11.25369 30.86157,-22.04096 5.15818,-9.49379 5.79198,-21.5097 1.92644,-34.37049 L 455.195,601.10429 c -2.64019,-8.81539 -8.97462,-12.65658 -16.9257,-10.24401 -5.75176,1.7346 -7.99933,4.60865 -9.1804,11.81757 -9.27887,-4.41228 -14.85698,-5.16327 -22.80807,-2.75072 -2.11244,0.63403 -4.12144,1.4138 -6.02332,2.32863 z m 14.76607,21.49754 c 0.55151,-0.23944 1.12617,-0.44832 1.72038,-0.62755 9.50935,-2.86283 18.35842,3.34187 22.02829,15.52943 3.98937,13.2647 0.23161,22.88751 -9.92542,25.93312 -9.48371,2.84987 -18.41068,-3.51014 -22.08057,-15.69774 l -0.0251,-0.0506 c -3.37965,-11.27566 0.0102,-21.49491 8.28276,-25.08703 z"
                   style="fill:#e6559f;fill-opacity:1"
                   id="path12901" />
                <path
                   d="m 499.78012,730.76988 c -2.80746,-5.44566 -7.53718,0.77908 -14.10755,4.36524 -7.00838,3.82531 -26.97622,11.57963 -54.76598,6.79241 -27.78971,-4.78714 -39.58055,-24.4708 -45.50206,-36.8558 -4.63149,-9.6805 -10.20729,-20.75497 -12.41983,-25.13206 -2.75807,-6.48747 -7.06041,-12.2023 -12.53226,-16.64651 -14.78743,-12.61179 -33.59592,-12.574 -44.36255,0.0959 -4.92791,5.80449 -7.01843,12.11839 -6.10141,18.49423 0.9259,5.19152 5.10398,13.32729 11.55099,24.84191 3.07822,5.49782 6.92924,12.15271 11.04222,14.16986 3.59377,1.76252 7.29894,1.39313 10.88718,-0.49539 3.86379,-2.03352 4.42914,-4.67761 5.3207,-7.24702 1.77417,-5.1131 -4.63301,-13.68116 -9.77389,-22.66692 -3.23261,-5.76043 -3.75784,-8.976 -2.14627,-10.85954 1.61158,-1.88354 4.49595,-1.74935 6.92252,0.31105 1.91951,1.78642 3.49674,3.90831 4.6541,6.26128 0,0 11.87649,23.68728 15.20124,36.00417 3.32476,12.31687 6.13763,21.72591 15.64231,22.59444 -0.96392,6.53929 2.76571,22.60722 14.29564,28.75886 11.52994,6.15163 23.25221,-0.84567 23.25221,-0.84567 0,0 1.79353,5.05272 9.78979,9.43887 9.68865,4.92798 21.19145,4.72033 30.69413,-0.55413 10.65875,-5.71496 13.13838,-18.61565 13.13838,-18.61565 3.84741,2.0481 10.60743,1.93655 18.97458,-3.29313 8.36717,-5.22968 13.60301,-20.13106 10.88231,-27.66724 -0.17002,-0.47095 -0.34936,-0.88617 -0.5365,-1.24919 z"
                   style="fill:#e6559f;fill-opacity:1"
                   id="path2509"
                   sodipodi:nodetypes="ssscccccsssscsccscsccccsss" />
              </g>
            </g>
            <g
               id="g12465">
              <path
                 style="fill:#ffffff"
                 d="m -68.78363,569.18956 c -0.956917,0.21037 -1.917174,0.55041 -2.865439,1.01287 a 1.80875,1.8091164 77.952084 0 0 -0.663367,2.45955 1.7800396,1.7804002 77.952084 0 0 2.304918,0.68402 6.2875595,6.2888331 77.952084 0 1 7.970362,1.23375 1.7948542,1.7952178 77.952084 0 0 2.655918,-2.41563 c -2.610335,-2.8258 -5.98465,-3.72495 -9.402392,-2.97456 z"
                 id="path12197" />
              <path
                 style="fill:#ffffff"
                 d="m -137.36104,590.43604 c -0.95692,0.21037 -1.91718,0.55041 -2.86544,1.01287 a 1.80875,1.8091164 77.952084 0 0 -0.66337,2.45955 1.7800396,1.7804002 77.952084 0 0 2.30492,0.68402 6.2875595,6.2888331 77.952084 0 1 7.97036,1.23375 1.7948542,1.7952178 77.952084 0 0 2.65592,-2.41563 c -2.61034,-2.8258 -5.98465,-3.72495 -9.40239,-2.97456 z"
                 id="path12195" />
              <path
                 style="fill:#ffffff"
                 d="m 44.612641,569.26164 a 1.7957661,1.7954025 0 0 0 -0.40429,3.52435 v -0.0293 c 6.54728,1.67955 13.82641,5.2539 17.34413,11.29743 a 1.7952182,1.7948546 0 0 0 3.10163,-1.80806 c -3.99155,-6.84742 -12.03102,-11.03945 -19.48285,-12.91998 a 1.7957661,1.7954025 0 0 0 -0.55862,-0.0644 z"
                 id="path12193" />
              <path
                 style="fill:#ffffff"
                 d="m 129.74858,607.72333 a 20.445887,20.441746 17.460617 0 0 -3.49251,-0.64619 1.7957661,1.7954025 17.460617 0 0 -0.12087,3.58697 16.684073,16.680694 17.460617 0 1 11.7861,6.79389 c 1.29502,1.9122 4.44501,0.22295 3.18676,-1.66263 a 20.445887,20.441746 17.460617 0 0 -11.35948,-8.07204 z"
                 id="path12191" />
              <path
                 style="fill:#ffffff"
                 d="m 169.6812,577.90987 c -1.88835,-0.5165 -3.49664,2.18698 -1.56,3.16295 l -0.0668,0.069 a 7.9400107,7.9384028 17.460617 0 1 3.74012,3.13322 9.5050399,9.5031151 17.460617 0 1 0.606,5.20132 c -0.19687,2.3007 3.38881,2.43582 3.58568,0.13512 a 12.649457,12.646895 17.460617 0 0 -0.97753,-6.98841 10.854698,10.8525 17.460617 0 0 -4.9457,-4.56656 c -0.12742,-0.0645 -0.25591,-0.11226 -0.38179,-0.14671 z"
                 id="path12189" />
              <path
                 style="fill:#ffffff"
                 d="m 210.83875,616.19037 a 20.441746,20.445887 87.167535 0 0 -3.49984,0.60521 1.7954025,1.7957661 87.167535 0 0 1.13067,3.40624 16.680694,16.684073 87.167535 0 1 13.41082,2.28452 c 1.87784,1.34437 4.24644,-1.33252 2.41233,-2.66467 a 20.441746,20.445887 87.167535 0 0 -13.45398,-3.6313 z"
                 id="path12187" />
              <path
                 style="fill:#ffffff"
                 d="m 237.95281,574.37789 c -1.95028,0.17048 -2.52111,3.26394 -0.36619,3.50767 l -0.0387,0.0879 a 7.9384028,7.9400107 87.167535 0 1 4.59464,1.64159 9.5031151,9.5050399 87.167535 0 1 2.37231,4.6683 c 0.61329,2.22617 4.02328,1.10931 3.40999,-1.11686 a 12.646895,12.649457 87.167535 0 0 -3.34059,-6.21562 10.8525,10.854698 87.167535 0 0 -6.22251,-2.56784 c -0.14188,-0.0163 -0.27896,-0.0165 -0.40898,-0.005 z"
                 id="path12185" />
              <path
                 style="fill:#ffffff"
                 d="m 300.91987,642.0967 c -1.96583,-0.0836 -2.90177,2.91891 -0.80772,3.43881 a 6.7770073,6.7756349 4.2478242 0 1 5.58148,6.8346 c 0.11943,2.26882 3.69738,2.56337 3.58007,0.26591 -0.29337,-5.16072 -2.71606,-9.18434 -7.94696,-10.47973 -0.13961,-0.0346 -0.27582,-0.054 -0.40687,-0.0596 z"
                 id="path12183" />
              <path
                 style="fill:#ffffff"
                 d="m 314.04616,600.56174 c -1.9616,0.15375 -2.52892,3.24729 -0.38747,3.51109 a 6.7756349,6.7770073 87.3273 0 1 6.36434,6.11227 c 0.39195,2.23791 3.97933,2.0992 3.58602,-0.1674 -0.91305,-5.08776 -3.80291,-8.79015 -9.15178,-9.44582 -0.14276,-0.0175 -0.28032,-0.0204 -0.41108,-0.0102 z"
                 id="path12181" />
              <path
                 style="fill:#ffffff"
                 d="m 443.42297,592.51616 a 1.80875,1.8091164 63.172207 0 0 -1.04557,1.15677 1.8231051,1.8234744 63.172207 0 0 1.10766,2.19017 l 0.0138,-0.007 a 8.0675993,8.0692332 63.172207 0 1 5.46034,6.18322 1.7954004,1.795764 63.172207 0 0 3.5203,-0.70387 11.728164,11.73054 63.172207 0 0 -7.87345,-8.88595 1.80875,1.8091164 63.172207 0 0 -1.18322,0.0667 z"
                 id="path12179" />
              <path
                 style="fill:#ffffff"
                 d="m 331.31578,658.11894 c -1.6691,1.01893 -0.63117,3.93532 1.44281,3.25031 a 12.790447,12.793037 57.089757 0 1 10.96758,1.09338 c 2.00305,1.16593 3.6168,-2.04921 1.62152,-3.20312 a 16.235685,16.238973 57.089757 0 0 -13.6622,-1.31705 c -0.13588,0.0494 -0.25847,0.1085 -0.36973,0.17647 z"
                 id="path12177" />
              <path
                 style="fill:#ffffff"
                 d="m 496.14578,734.84646 a 1.8091164,1.80875 58.289206 0 0 -2.37055,-0.56031 l -6.50801,4.02113 a 1.7950025,1.794639 58.289206 0 0 1.88701,3.05405 l 6.50801,-4.02112 a 1.7947583,1.7943949 58.289206 0 0 0.48353,-2.49374 z"
                 id="path2622" />
            </g>
          </g>
          <g
             id="g7803"
             style="display:inline"
             transform="rotate(0.73629445,520.49605,-1879.9479)">
            <path
               d="m 382.58245,590.97419 c 7.96382,-0.75765 18.19739,4.54097 22.96348,8.77019 4.76609,4.22923 16.06218,1.31159 21.65418,0.26872 6.79293,-1.26682 16.12412,-6.55295 30.71464,4.17169 21.38524,15.71903 24.55651,35.75768 11.9008,58.51241 -12.6557,22.75473 -33.645,26.38176 -62.74487,8.81852 -29.09986,-17.56325 -39.51122,-28.88562 -40.48552,-49.645 -0.97432,-20.75938 10.51191,-30.37466 15.99729,-30.89653 z"
               id="pDogHead-5"
               style="display:inline;fill:#91cee5" />
            <path
               id="pDogEyeMouth-1"
               style="display:inline;fill:#ffffff"
               d="m 368.72121,605.73034 c -1.54077,4.35283 -2.43786,9.70984 -2.13605,16.14038 0.31378,6.68553 1.62607,12.38597 4.20639,17.63764 4.21298,3.54258 9.05698,6.55458 14.77843,6.95439 1.29763,0.0907 2.59938,0.0166 3.88781,-0.16254 6.29613,-0.87548 11.73718,-4.86325 14.42603,-10.6224 2.60164,-5.57238 1.89979,-12.10702 -1.03501,-16.35128 -2.31854,-3.35303 -4.14957,-4.40409 -6.5652,-5.60639 -2.49499,-1.13546 -5.29826,-1.78208 -7.79848,-2.1908 -6.10085,-0.99735 -8.79538,-0.92458 -12.06411,-1.99123 -2.44891,-0.79911 -4.90149,-1.86311 -7.69981,-3.80777 z m 70.64485,11.12817 c -10.32377,2.26846 -16.85442,12.47461 -14.58681,22.79638 2.26727,10.32263 12.4754,16.85215 22.79998,14.58376 10.32452,-2.26863 16.85522,-12.476 14.58639,-22.79829 -2.26816,-10.32166 -12.47574,-16.85008 -22.79956,-14.58185 z" />
            <path
               id="pDogEyeMouthNoseEars-6"
               d="m 386.1419,571.80393 c -5.38634,1.20611 -9.32557,5.8219 -9.68131,11.32911 -0.44308,6.85967 4.77296,11.07689 11.70979,11.53692 6.93685,0.46001 11.55182,-3.12743 11.99075,-9.98337 0.44005,-6.87367 -3.62606,-12.69653 -10.48981,-13.15638 -1.18338,-0.0793 -2.37202,0.0145 -3.52942,0.27372 z m -17.42535,33.92343 c -0.39273,1.09796 -0.72394,2.2038 -0.99646,3.33758 1.69981,1.13582 3.51851,2.08402 5.41102,2.8473 -0.85498,3.79332 -1.17088,7.88871 -1.09727,11.96193 0.0881,4.87533 0.71722,9.68887 1.42526,13.49475 -1.17846,-0.94637 -2.06653,-1.78111 -3.15628,-2.77897 l -2.1129,-1.9347 c 0.63127,2.33907 1.50064,4.64884 2.56548,6.82506 4.22111,3.55531 9.07732,6.58153 14.81458,6.98244 1.29763,0.0907 2.59938,0.0166 3.88781,-0.16254 6.29613,-0.87548 11.73718,-4.86325 14.42603,-10.6224 2.60164,-5.57238 1.89979,-12.10702 -1.03501,-16.35128 -2.31854,-3.35303 -4.14957,-4.40409 -6.5652,-5.60639 -2.49499,-1.13546 -5.29826,-1.78208 -7.79848,-2.1908 -6.10085,-0.99735 -8.79538,-0.92458 -12.06411,-1.99123 -2.45031,-0.79959 -4.90416,-1.86398 -7.70447,-3.81075 z m 88.40898,-16.42054 c -1.58139,0.32279 -2.97625,1.25428 -3.86604,2.60067 l -2.69242,4.07405 c -4.30614,6.51586 5.872,13.22952 10.17809,6.71372 l 2.69243,-4.07404 c 1.8517,-2.80193 1.06535,-6.58382 -1.73575,-8.43674 -1.34611,-0.89044 -2.99478,-1.20049 -4.57631,-0.87766 z m -81.25503,23.56884 c 1.34943,0.37826 2.6703,0.70825 4.01214,0.88566 0.54977,0.0727 1.10013,0.14078 1.65021,0.21117 0.8648,0.11067 1.6852,0.21312 2.51046,0.32202 -1.07695,5.1399 -1.34364,10.41518 -0.91166,15.6555 0.51819,6.28605 1.92142,10.70047 2.92155,13.142 -3.29378,-0.17541 -6.31846,-1.42644 -9.10759,-3.18859 -1.03923,-4.14755 -1.58966,-8.45236 -1.85034,-12.67168 -0.2975,-4.81546 -0.22067,-9.39481 0.77522,-14.35608 z m 11.02922,1.82278 c 2.32854,0.36232 4.47142,0.79658 6.35276,1.44492 -0.48236,3.5226 -0.48729,7.10624 -0.0693,10.64255 0.52747,4.46299 1.56571,8.87481 3.1361,13.08088 -2.06458,1.59964 -4.53432,2.65708 -7.19575,3.06439 -0.84236,-1.827 -2.568,-6.31653 -3.12796,-13.19861 -0.40927,-5.02998 -0.13729,-10.10075 0.90419,-15.03413 z m 9.089,2.64892 c 1.61645,0.91094 2.97383,2.12131 4.014,3.75201 2.5211,3.95232 2.82568,8.91409 0.81767,13.15046 -0.60373,1.2737 -1.37454,2.46239 -2.27219,3.50193 -1.26804,-3.64931 -2.12622,-7.45567 -2.57272,-11.2995 -0.35129,-3.02404 -0.35554,-6.08891 0.0132,-9.1049 z m 75.32818,-16.4951 c -1.26947,0.19968 -2.45003,0.78797 -3.35624,1.69901 l -3.44299,3.46131 c -5.4715,5.50063 3.15216,14.11092 8.62546,8.61218 l 3.4434,-3.45939 c 2.37338,-2.38441 2.37423,-6.23919 -0.0104,-8.61192 -1.38047,-1.37356 -3.33516,-2.0038 -5.25919,-1.70119 z m -32.74893,14.74027 c -10.93317,2.67744 -17.76297,13.73173 -15.08959,24.80402 2.75962,11.42946 14.52574,18.23725 25.80468,14.90713 8.78739,-2.59449 14.80004,-10.692 14.76369,-19.85256 -0.008,-1.92772 -0.28213,-3.84649 -0.82559,-5.69601 -2.98228,-10.14959 -13.18803,-16.37232 -23.58258,-14.39581 -0.36102,0.0687 -0.71792,0.14689 -1.07062,0.23319 z m 1.05648,2.67859 c 11.0319,-2.47154 21.52212,5.88726 21.57291,17.19033 0.0656,14.59313 -16.5672,22.9914 -28.27483,14.27899 -11.70762,-8.71239 -8.43254,-27.051 5.56844,-31.17629 0.37444,-0.11033 0.75256,-0.20774 1.13347,-0.29307 z m 1.7194,7.5887 c -5.35186,1.17591 -8.73746,6.46623 -7.56231,11.81712 1.1753,5.35163 6.46735,8.73652 11.81995,7.56044 5.3526,-1.17607 8.73827,-6.46761 7.5619,-11.81902 -1.1762,-5.35066 -6.46768,-8.73445 -11.81954,-7.55854 z"
               style="display:inline;fill:#2f2b42" />
          </g>
        </g>
        <g
           id="g12451">
          <path
             style="display:inline;fill:#8579b8;fill-opacity:1"
             d="m 44.469115,686.81246 c -3.796128,-1.97929 -9.623066,1.11841 -7.740511,6.23564 l 0.01957,-0.0383 a 46.348,46.338 27.069005 0 0 11.362882,17.43014 c 5.023932,4.80899 12.277719,-3.1398 7.278719,-7.93604 a 33.942,33.936 27.069005 0 1 -8.423109,-12.7665 c -0.531369,-1.41703 -1.434439,-2.37042 -2.497549,-2.92495 z"
             id="path10843" />
          <path
             style="display:inline;fill:#8579b8;fill-opacity:1"
             d="m 66.601194,691.39268 c -4.188737,-2.08785 -10.122507,2.83406 -6.963614,7.75455 a 76.93,76.915 27.069005 0 0 24.466808,23.93142 c 5.888305,3.65379 10.749681,-5.95335 4.899667,-9.58757 A 64.267,64.254 27.069005 0 1 68.677751,693.31749 c -0.58635,-0.9117 -1.302214,-1.5392 -2.076992,-1.92616 z"
             id="path10840" />
          <path
             style="display:inline;fill:#8579b8;fill-opacity:1"
             d="m -177.73162,740.91079 c -3.72584,0.65897 -6.41291,6.38033 -2.62369,9.87791 a 88.571,88.59 82.121003 0 0 31.03407,18.55905 c 6.5327,2.26891 10.66511,-7.67848 4.10162,-9.95831 a 80.906,80.922 82.121003 0 1 -28.64157,-17.18096 c -1.27119,-1.17584 -2.62876,-1.51697 -3.87043,-1.29769 z"
             id="path10838" />
          <path
             style="display:inline;fill:#8579b8;fill-opacity:1"
             d="m -175.92825,714.91417 c -3.551,0.5217 -6.67259,4.86865 -3.86641,8.72538 a 145.289,145.318 82.121003 0 0 19.92368,21.415 c 5.11227,4.68341 11.57204,-3.93345 6.49439,-8.57824 a 131.637,131.663 82.121003 0 1 -17.9605,-19.49903 c -1.27476,-1.74876 -2.97747,-2.30056 -4.59116,-2.06311 z"
             id="path10836" />
          <path
             style="display:inline;fill:#8579b8;fill-opacity:1"
             d="m 444.01131,817.42445 c -1.01108,-1.25808 -2.62524,-1.98339 -4.74343,-1.525 a 48.961,48.951 50.963963 0 1 -40.78165,-8.95056 c -5.52277,-4.19145 -11.79491,4.57488 -6.26254,8.77658 l -0.0101,-0.0124 a 59.457,59.445 50.963963 0 0 48.68786,10.83868 c 4.64558,-1.00911 5.33449,-6.35818 3.10984,-9.12727 z"
             id="path10834" />
          <path
             style="display:inline;fill:#8579b8;fill-opacity:1"
             d="m 457.6447,802.11781 c -1.02228,-1.30049 -2.65398,-2.10299 -4.80209,-1.75295 -11.06451,1.76187 -22.56331,1.50831 -32.95424,-2.98695 -6.35578,-2.75774 -10.15241,7.30875 -3.79585,10.06586 12.00109,5.20451 25.6163,5.60879 38.37332,3.56374 4.71647,-0.7486 5.42865,-6.02769 3.17886,-8.8897 z"
             id="path10832" />
          <path
             style="display:inline;fill:#8579b8;fill-opacity:1"
             d="m 518.99802,742.83355 c -2.13277,0.22483 -4.03381,1.63576 -4.28323,4.43773 -0.66643,7.74298 -1.61718,16.65094 -7.02889,22.61769 -4.64594,5.17421 3.91431,11.71232 8.52145,6.57337 l 0.009,0.0694 c 6.6186,-7.38186 8.34821,-18.21534 9.17433,-27.74446 0.33314,-4.08221 -3.27615,-6.28234 -6.39262,-5.95375 z"
             id="path10830" />
          <path
             style="display:inline;fill:#8579b8;fill-opacity:1"
             d="m 60.991991,547.61317 c -1.837046,0.61428 -3.392181,2.33997 -3.75585,4.15263 -0.639386,3.11375 1.417812,5.46029 4.192511,6.35125 a 16.752,16.756 71.215201 0 1 10.0099,9.08879 c 2.761836,6.29389 12.987884,2.87589 10.193493,-3.46713 A 28.624,28.63 71.215201 0 0 63.587296,547.55748 c -0.866575,-0.27458 -1.759944,-0.22422 -2.595305,0.0557 z"
             id="path10828" />
          <path
             style="display:inline;fill:#8579b8;fill-opacity:1"
             d="m 267.33918,575.92228 c -1.87372,-0.47925 -4.09967,0.11832 -5.39577,1.44375 a 5.513,5.512 13.962294 0 0 0.087,7.62424 71.862,71.848 13.962294 0 0 11.15351,10.71782 5.57,5.57 0 0 0 7.61549,-0.10563 c 1.84713,-1.89223 2.21848,-5.82276 -0.10321,-7.61283 A 72.221,72.206 13.962294 0 1 269.55479,577.2769 c -0.5854,-0.69581 -1.36306,-1.13646 -2.21561,-1.35462 z"
             id="path10826" />
          <path
             style="display:inline;fill:#8579b8;fill-opacity:1"
             d="m 289.1606,557.68356 c -1.41486,-0.29819 -2.96415,-0.093 -4.09663,0.59513 -2.74461,1.63921 -3.02318,4.72001 -1.83545,7.38225 l 0.003,-0.0136 a 141.326,141.298 13.962294 0 0 7.38774,14.73591 c 3.53175,5.96643 12.75478,0.41889 9.2223,-5.54875 a 143.222,143.193 13.962294 0 1 -7.39281,-14.71966 c -0.59424,-1.33173 -1.87368,-2.13311 -3.28853,-2.4313 z"
             id="path10824" />
          <path
             style="display:inline;fill:#8579b8;fill-opacity:1"
             d="m 319.06048,554.34939 c -2.60956,-0.64881 -5.59771,0.39092 -6.36437,3.77286 a 73.226,73.211 13.962294 0 0 -1.74907,17.9225 c 0.17313,6.92126 10.94359,6.68399 10.76725,-0.28239 a 61.208,61.196 13.962294 0 1 1.4353,-15.05653 c 0.74969,-3.37173 -1.48053,-5.70787 -4.08911,-6.35644 z"
             id="path8196-7" />
        </g>
      </g>
    </g>
  </g>
</svg>
